<?xml version="1.0" encoding="utf-8"?>
<!-- Generator: Adobe Illustrator 27.5.0, SVG Export Plug-In . SVG Version: 6.00 Build 0)  -->
<svg version="1.1" xmlns="http://www.w3.org/2000/svg" xmlns:xlink="http://www.w3.org/1999/xlink" 
	x="0px" y="0px"
	 viewBox="0 0 800 800" style="enable-background:new 0 0 800 800;" xml:space="preserve">
<g id="background">
</g>
<g id="objects">
	<g>
		<defs>
			<rect id="SVGID_1_" width="800" height="800"/>
		</defs>
		<clipPath id="SVGID_00000124138330822850560860000001030583563587297471_">
			<use xlink:href="#SVGID_1_"  style="overflow:visible;"/>
		</clipPath>
		<g style="clip-path:url(#SVGID_00000124138330822850560860000001030583563587297471_);">
			<path d="M821.014,392.941c-1.978,0.001-3.958,0.04-5.935-0.01c-1.304-0.033-1.901,0.527-2.439,1.744
				c-0.847,1.917-1.868,3.833-3.178,5.458c-11.565,14.35-19.62,31.068-30.856,45.639c-1.492,1.934-2.895,1.238-4.549,0.534
				c-9.267-3.944-18.011-8.878-26.431-14.346c-5.552-3.606-11.503-6.37-17.372-9.337c-1.035-0.523-1.782-0.605-2.685,0.137
				c-1.425,1.17-2.91,2.265-4.579,3.555c4.813,8.485,9.519,16.796,14.239,25.098c15.972,28.095,31.927,56.2,47.968,84.255
				c1.249,2.185,0.938,3.639-0.813,5.182c-2.006,1.767-4.174,3.067-6.905,3.37c-12.452,1.378-24.784,3.868-37.368,4.008
				c-1.596,0.018-3.192,0.002-4.999,0.002c-1.024,3.31-3.695,5.017-6.742,6.736c-31.502,17.778-62.915,35.713-94.354,53.602
				c-3.004,1.709-5.644,4.168-9.252,4.647c-3.123,0.414-5.646,0.009-7.494-3.257c-26.628-47.058-53.367-94.052-80.074-141.065
				c-1.903-3.35-3.809-6.699-5.63-10.093c-2.457-4.578-1.308-8.375,3.124-10.891c26.266-14.909,52.525-29.832,78.782-44.759
				c0.855-0.486,1.656-1.066,2.858-1.846c-3.158-5.952-6.701-11.619-9.403-17.721c-1.668-3.767-1.27-5.315,2.503-7
				c1.474-0.658,2.927-1.382,4.446-1.917c2.245-0.79,4.168-0.369,5.434,1.855c3.25,5.71,7.256,10.993,9.73,17.625
				c2.31-1.196,4.513-2.242,6.62-3.455c1.732-0.996,3.34-2.091,5.522-1.727c1.63,0.272,2.33-1.143,3.231-2.144
				c5.589-6.213,9.85-13.385,14.627-20.185c3.568-5.079,7.337-10.012,11.073-14.969c2.657-3.525,6.447-4.559,10.066-5.761
				c11.17-3.708,11.358-3.824,9.188-15.222c-1.278-6.71-2.619-13.418-3.542-20.181c-0.696-5.106-0.221-5.056,4.666-6.541
				c15.097-4.588,30.16-9.296,45.178-14.138c10.432-3.363,21.024-5.85,31.844-7.666c8.312-1.395,16.426-3.936,24.678-5.738
				c8.37-1.828,9.96-0.556,11.045,8.072c0.059,0.47,0.169,0.933,0.434,2.369c5.991-8.422,10.55-16.776,15.592-25.531
				c-71.532-20.03-142.652-39.946-214.012-59.928c-1.509,4.375-3.004,8.531-4.372,12.728c-1.297,3.98-4.036,7.108-6.06,10.656
				c-8.377,14.678-17.938,28.614-26.918,42.912c-4.563,7.265-8.665,14.781-13.053,22.136c-1.762,2.953-3.67,3.974-7.004,2.921
				c-1.941-0.614-3.915-1.65-6.437-1.082c-0.202,8.886-3.9,16.721-7.795,24.517c-1.332,2.667-1.9,5.624-2.467,8.567
				c-0.78,4.047-1.963,7.994-4.813,11.148c-1.844,2.041-3.493,1.747-4.467-0.841c-0.783-2.082-1.345-4.247-2.094-6.661
				c-1.373,1-2.026,2.252-1.466,3.71c1.331,3.47,0.739,6.837-0.162,10.233c-0.865,3.258-1.473,6.545-1.269,9.943
				c0.133,2.219-0.869,3.043-3.147,2.973c-12.542-0.384-25.068-1.193-37.525-2.545c-14.603-1.585-29.34-1.058-43.883-2.939
				c-22.046-2.852-44.257-4.372-66.174-8.282c-3.497-0.624-4.177-2.379-3.771-5.431c1.291-9.713,2.535-19.433,3.728-29.158
				c0.527-4.296-0.136-5.029-4.434-5.981c-1.495-0.331-3.303-0.322-3.913-2.161c0.32-1.798,1.992-1.289,3.273-2.133
				c-5.641-7.228-4.132-15.179-2.656-23.379c1.059-5.884,2.176-11.967,0.685-18.19c-2.335-0.538-4.3,0.602-6.356,0.726
				c-2.367,0.142-3.761-0.762-4.596-2.887c-11.003-28.013-21.266-56.254-25.2-86.313c-0.706-5.397-0.408-10.92-0.722-16.377
				c-0.342-5.95-0.631-11.901-1.597-17.809c-0.409-2.5-0.551-5.035,1.051-7.53c1.641-2.555-0.819-3.027-2.609-3.529
				c-13.398-3.755-26.8-7.495-40.199-11.245c-56.113-15.701-112.226-31.405-168.34-47.103c-1.298-0.363-2.609-0.678-4.091-1.061
				c-1.511,2.884-1.978,5.969-2.774,8.916c-15.24,56.4-30.407,112.819-45.644,169.219c-16.566,61.32-33.186,122.625-49.785,183.936
				c-6.367,23.517-12.721,47.036-19.13,70.541c-1.141,4.186-2.646,8.274-3.772,12.464c-1.391,5.174-0.831,5.991,4.251,7.348
				c28.816,7.691,57.642,15.346,86.445,23.088c31.084,8.354,62.145,16.791,93.218,25.188c1.195,0.323,2.401,0.601,4.348,1.086
				c0.451-7.937,5.77-14.097,6.838-21.858c0.576-4.181,2.881-7.928,5.307-11.415c10.711-15.4,21.354-30.777,33.841-44.93
				c9.77-11.074,19.675-22.052,29.267-33.289c2.53-2.964,5.206-2.743,8.178-1.658c3.808-4.688,5.759-10.121,8.884-14.872
				c-4.046-2.277-4.25-2.341-2.929-6.613c4.704-15.217,6.875-31.026,11.004-46.371c1.439-5.349,2.114-5.912,7.63-4.878
				c22.337,4.186,44.771,7.843,66.919,13.046c15.717,3.692,31.592,6.714,47.404,10.001c1.567,0.326,3.183,0.417,5.471,0.704
				c-2.315,17.13-8.489,33.509-10.067,51.254c9.338,0.147,18.3,2.584,27.212,5.125c8.849,2.523,18.341,2.024,27.552,5.14
				c-3.451,5.27-2.776,10.552-3.698,15.463c-4.651,24.777-9.012,49.609-13.382,74.438c-1.506,8.557-2.765,17.159-4.094,25.747
				c-0.752,4.857-1.171,5.143-6.161,5.312c-2.999,0.101-5.902-0.49-9.102-0.893c0.02,2.612-0.849,4.817,1.522,7.18
				c1.996,1.99-0.72,2.626-2.284,3.217c-8.552,3.232-17.486,3.265-26.435,3.195c-12.904-0.102-25.81,1.148-38.714-0.632
				c-5.794-0.799-11.685,0.16-17.474,0.832c-3.481,0.403-6.944,0.06-10.401,0.474c-2.103,0.252-2.631-1.19-2.917-3.015
				c-3.523-22.474-3.095-44.964-1.151-67.567c1.031-11.986,2.983-23.951,2.475-36.041c-0.25-5.952-1.05-11.882-1.301-17.834
				c-0.221-5.255,1.616-6.713,6.784-5.991c5.417,0.757,5.385,0.749,6.788-4.693c0.835-3.236,1.592-6.476,1.875-10.026
				c-4.547-1.634-9.328-1.628-13.874-2.698c-4.888-1.15-8.844-0.211-13.507,2.137c-7.338,3.696-14.816,6.869-20.746,12.757
				c-0.512,0.508-1.051,0.989-1.515,1.423c0.123,0.429,0.12,0.722,0.264,0.875c7.095,7.489,5.741,6.331,0.837,13.431
				c-0.705,1.021-1.529,1.96-2.292,2.941c-1.343,1.726-1.84,3.131,0.204,5.02c3.09,2.856,3.208,6.066,1.301,9.926
				c-10.642,21.541-23.831,41.612-35.918,62.319c-3.612,6.189-6.91,12.407-5.807,20.649c79.414,21.511,159.077,43.09,239.213,64.797
				c0.366-4.531,0.416-8.607,1.069-12.583c2.039-12.401,2.693-24.929,3.717-37.423c0.161-1.965,0.151-4.012-0.213-5.94
				c-1.786-9.465-1.514-19.148,1.651-27.91c1.974-5.463,2.225-10.899,3.536-16.277c0.865-3.546,1.266-3.965,6.515-5.598
				c-2.384-5.013-4.841-9.965-6.307-15.31c-3.117-11.365-7.078-22.49-8.296-34.359c-0.434-4.225-2.487-8.291-3.858-12.411
				c-0.902-2.712-2.025-5.364-1.282-8.331c0.342-1.365-0.576-2.334-1.17-3.415c-3.891-7.076-6.494-14.521-6.259-22.728
				c0.257-8.969,8.027-17.153,16.935-17.9c5.691-0.477,12.761,6.343,13.442,12.423c9.422,5.764,17.235,12.23,23.496,21.32
				c9.809,14.242,6.532,29.539,5.677,44.669c-0.602,10.635-1.012,21.357-3.393,31.835c-0.15,0.662-0.09,1.64,0.303,2.112
				c2.239,2.685,1.484,5.75,0.908,8.573c-1.054,5.167-0.648,10.045,1.187,14.975c1.708,4.589,1.605,9.547,1.978,14.345
				c2.024,25.987-0.234,51.633-7.027,76.811c-0.944,3.5-0.259,4.667,3.208,5.602c69.355,18.7,138.67,37.549,208.012,56.3
				c15.452,4.179,30.974,8.099,46.795,12.224c3.841-8.638,5.527-17.922,7.962-26.955c11.651-43.205,23.173-86.445,34.758-129.668
				c0.251-0.935,0.233-2.013,1.115-2.7c0,7.71,0,15.419,0,23.129c-3.14,8.641-5.065,17.628-7.489,26.471
				c-10.285,37.518-20.475,75.063-30.714,112.594c-1.318,4.83-1.373,4.872-6.257,3.492c-76.884-21.73-154.197-41.88-231.26-62.953
				c-8.861-2.423-17.734-4.803-26.869-7.275c-1.277,4.425-2.775,8.608-3.669,12.916c-2.219,10.694-7.919,20.056-11.336,30.302
				c-1.684,5.051-6.281,8.563-9.546,12.781c-9.812,12.672-19.586,25.369-30.455,37.184c-9.993,10.863-21.242,19.804-35.499,24.437
				c-2.109,0.685-4.168,1.526-6.454,2.371c1.484,4.654,1.514,9.182,0.922,13.756c-0.489,3.781-2.427,5.465-6.359,5.709
				c-6.657,0.413-13.13-0.947-19.659-1.577c-13.841-1.336-27.764-2.491-41.4-5.062c-9.721-1.833-19.03,0.027-28.457,0.557
				c-19.133,1.076-35.68-5.054-50.609-16.379c-2.03-1.54-4.119-2.404-6.382-3.353c-4.103-1.721-8.127-3.769-11.878-6.16
				c-7.737-4.931-15.815-9.254-23.376-14.554c-9.723-6.816-19.858-13.139-30.373-18.795c-5.414-2.913-11.173-5.459-15.044-10.702
				c-2.884-3.906-2.703-6.524,1.39-9.291c1.921-1.299,4.099-2.219,6.332-3.402c-10.608-22.547-18.351-45.969-22.431-70.406
				c-4.075-24.406-6.505-48.992-1.781-73.981c-9.744-2.65-19.187-5.213-28.628-7.786c-52.033-14.181-104.065-28.364-156.097-42.549
				c-1.078-0.294-2.176-0.548-3.216-0.947c-5.325-2.042-6.281-3.89-4.81-9.389c18.635-69.637,37.229-139.286,55.935-208.904
				c20.834-77.539,41.78-155.049,62.659-232.576c3.032-11.258,2.983-11.26,14.249-8.105
				c68.545,19.193,137.092,38.381,205.641,57.563c1.174,0.328,2.372,0.569,3.998,0.954c0.852-7.551,3.201-14.398,6.649-20.888
				c3.676-6.921,7.463-13.78,12.191-20.043c3.483-4.614,8.611-7.458,12.874-11.246c5.223-4.641,10.043-9.627,14.747-14.753
				c5.121-5.581,10.06-11.371,16.978-14.884c1.22-0.62,1.246-1.429,1.288-2.678c0.234-6.956-2.825-13.273-3.707-20.001
				c-0.111-0.847-0.589-1.638-0.795-2.48c-2.517-10.279,0.367-12.752,9.197-13.041c14.44-0.473,28.81,0.856,43.075,3.078
				c6.982,1.088,14.113,1.071,20.996,2.985c1.099,0.305,2.628-0.543,3.841-1.11c5.858-2.74,11.956-3.971,18.447-3.672
				c8.06,0.371,16.203-0.736,24.187,0.828c11.112,2.177,21.851,5.091,31.239,12.191c9.469,7.161,19.129,13.898,24.564,24.938
				c0.398,0.809,1.101,1.309,1.928,1.675c15.23,6.73,30.069,14.259,44.775,22.051c3.95,2.093,7.802,4.448,10.234,8.43
				c1.999,3.273,1.473,5.703-1.539,8.099c-4.217,3.355-9.132,5.508-13.769,8.143c-0.523,0.297-0.96,0.745-1.727,1.354
				c3.385,5.83,6.147,11.901,8.854,17.995c6.417,14.448,7.427,29.613,6.812,45.221c-0.631,16.001-6.599,31.075-6.902,47.506
				c8.146,2.293,16.721,4.719,25.303,7.12c62.451,17.47,124.903,34.935,187.356,52.394c0.595,0.166,1.218,0.233,1.827,0.347
				c0,2.984,0,5.969,0,8.953c-7.676,12.664-15.352,25.328-23.515,38.797c8.46,0,15.988,0,23.515,0c0,0.995,0,1.99,0,2.984
				c-11.556,0.035-23.126,0.438-34.666,0.016c-15.177-0.555-30.203,1.192-45.403,1.922c0,26.863,0,53.604,0,80.619
				c9.504-1.129,18.698-0.518,27.879-0.827c17.39-0.586,34.793-0.789,52.19-1.152C821.014,389.957,821.014,391.449,821.014,392.941z
				 M339.115,791.116c-0.824-0.474-1.129-0.673-1.454-0.832c-1.472-0.721-3.211-1.458-2.81-3.428c0.446-2.192,2.44-1.69,3.997-1.597
				c7.36,0.442,13.73-2.638,20.632-5.467c-2.716-0.806-4.963-1.449-7.193-2.146c-1.093-0.342-2.204-0.82-2.117-2.225
				c0.087-1.39,1.269-1.765,2.36-2.002c6.864-1.485,13.019-4.24,18.727-8.519c5.967-4.473,12.177-8.566,17.244-14.134
				c2.372-2.606,3.244-5.64,3.726-8.82c-1.547-0.938-2.731-0.673-3.959-0.363c-3.212,0.811-3.822,0.243-3.162-2.988
				c0.755-3.7,2.536-6.974,4.307-10.264c1.179-2.191,2.762-4.242,3.404-6.979c-1.742,0.173-3.127,1.325-4.18-0.239
				c-0.806-1.197-0.283-2.419,0.24-3.545c1.045-2.25,2.33-4.4,3.235-6.701c4.857-12.353,12.664-22.383,23.405-30.16
				c0.241-0.174,0.276-0.632,0.469-1.113c-0.841-0.375-1.594-0.792-2.398-1.055c-4.365-1.425-8.691-3.032-13.413-2.774
				c-3.092,0.169-4.358-2.075-4.255-4.444c0.108-2.504,2.651-1.533,4.226-1.621c1.498-0.083,3.012,0.142,5.419,0.285
				c-1.381-1.023-1.939-1.489-2.546-1.877c-8.372-5.36-16.79-10.591-22.815-18.877c-2.588-3.559-6.455-5.722-10.765-7.007
				c-4.283-1.277-8.485-2.825-12.94-3.469c-1.131-0.164-2.281-0.554-2.338-1.965c-0.047-1.174,0.877-1.751,1.826-2.098
				c2.015-0.736,4.065-1.378,7.157-2.412c-14.066-3.435-27.254-3.795-40.403-1.664c-9.892,1.604-18.988,5.945-27.583,10.951
				c-8.385,4.884-16.43,10.509-21.616,19.021c-4.516,7.411-8.999,14.889-11.816,23.198c-0.497,1.466-0.969,3.093-2.687,3.832
				c-2.795-1.354-1.807-5.369-4.817-6.718c0.545,6.026,0.213,11.926-1.656,17.448c-3.573,10.559-5.309,21.151-2.846,32.183
				c0.692,3.101,0.306,6.476,2.097,9.273c0.473,0.739,1.872,0.969,1.295,2.248c-0.53,1.173-1.67,0.804-2.632,0.77
				c-5.083-0.18-8.81,2.991-13.408,4.869c3.875,2.812,8.625,2.982,11.288,6.608c4.658,6.343,11.144,8.675,18.697,8.762
				c1.799,0.021,2.944,0.554,3.527,2.521c1.301,4.389,3.817,8.085,7.413,10.943C295.94,790.785,316.354,794.897,339.115,791.116z
				 M241.364,465.85c-0.456,0.653-0.908,1.598-1.618,2.268c-7.546,7.117-13.259,15.785-19.968,23.611
				c-13.405,15.635-26.915,31.152-34.619,50.833c-4.968,12.691-9.059,25.431-10.426,39.027c-1.438,14.306-0.393,28.531,0.875,42.767
				c2.502,28.086,9.944,54.895,20.824,80.82c0.715,1.704,1.336,3.473,2.732,4.728c2.886-0.961,5.061-3.575,8.655-3.457
				c-0.139,4.55-4.203,4.869-7.023,6.966c13.308,13.296,29.251,21.194,46.918,26.673c-1.236-10.405-4.016-20.152-2.247-29.953
				c-8.621-3.657-15.498-9.242-22.841-14.059c-1.075-0.705-2.704-1.593-1.434-3.177c1.029-1.283,2.31-0.167,3.298,0.487
				c5.592,3.706,11.171,7.433,16.704,11.226c1.539,1.055,3.04,2.049,5.224,2.194c3.283-9.938,6.865-19.755,3.679-30.456
				c-0.326-1.096-0.542-2.34,0.769-2.924c1.165-0.519,2.173,0.169,3.001,0.974c2.146,2.088,3.115,4.982,4.907,7.68
				c3.891-10.587,9.233-20.015,15.29-29.225c-2.384-1.126-4.47-2.241-6.652-3.118c-5.521-2.219-11.426-3.069-17.157-2.154
				c-3.055,0.487-4.025-0.163-4.928-2.552c-0.278-0.735-0.256-1.789-1.479-1.968c-0.368,1.553-0.564,3.35-2.723,3.39
				c-0.842,0.016-1.299-0.674-1.401-1.481c-0.341-2.691,1.792-3.358,3.934-4.085c-3.546-5.955-6.089-12.017-10.269-17.228
				c-4.066-5.07-6.24-10.836-5.199-17.676c0.611-4.013,0.336-8.19,0.177-12.282c-0.1-2.588-0.67-5.181-3.207-6.685
				c-9.811,6.128-14.588,6.853-15.972,2.103c4.189,0.638,7.797-0.284,11.177-2.872c3.251-2.489,5.274-6.233,8.656-8.44
				c1.625,0.677,1.974,3.192,4.399,1.982c-0.962-8.397,2.92-15.381,7.009-22.444c11.326-19.563,23.927-38.39,33.879-58.748
				c2.866-5.862,3.128-6.959-2.088-11.003C262.532,480.08,253.694,471.338,241.364,465.85z M559.896,188.707
				c-65.504-18.319-130.455-36.484-195.273-54.611c-1.122,1.958-0.793,3.482-0.817,4.946c-0.331,19.578,4.808,38.641,5.491,58.124
				c0.303,8.642,2.835,16.834,5.065,25.078c1.764,6.521,4.973,9.06,11.964,9.564c12.879,0.929,25.646,2.877,38.537,3.844
				c17.936,1.345,35.788,3.804,53.679,5.76c13.327,1.457,26.677,2.715,39.979,4.37c6.619,0.824,6.619,1.139,6.403,7.786
				c-0.161,4.967-0.439,9.93-0.665,14.894c3.536-5.212,6.065-10.746,9.639-15.663c2.734-3.762,4.546-7.927,6.006-12.33
				c1.636-4.932,2.319-10.228,5.202-14.702C552.343,214.534,553.973,201.118,559.896,188.707z M371.077,776.917
				c29.248,10.746,63.889,4.036,86.775-21.577c-2.348-2.114-1.246-4.982-1.446-7.619c-0.08-1.055,0.514-2.012,1.663-2.161
				c1.42-0.184,1.941,0.883,2.206,2.037c0.262,1.141,0.425,2.305,0.646,3.54c1.5-0.566,1.971-1.817,2.83-2.669
				c10.025-9.934,17.188-22.241,26.698-32.54c9.553-10.345,14.659-22.779,19.379-35.604c3.937-10.697,5.246-21.877,7.169-33.028
				c4.438-25.726,6.526-51.482,4.608-77.528c-0.196-2.666-0.217-5.401-1.207-8.226c-2.576,0-5.054-0.041-7.531,0.007
				c-7.945,0.153-15.909-0.297-23.829,0.683c-1.332,0.165-2.558,0.131-2.977,2.056c-1.595,7.333-2.283,14.713-1.246,22.148
				c0.502,3.601,0.621,7.168,0.518,10.774c-0.463,16.165-3.569,32.064-4.834,48.147c-0.193,2.451-0.546,4.612-3.418,5.519
				c-0.946,0.299-1.877,1.436-1.783,3.129c3.829-1.667,7.279-3.43,11.175-3.769c1.096-0.095,2.478-0.34,2.855,1.05
				c0.389,1.435-0.918,1.822-1.978,2.205c-0.467,0.169-0.937,0.348-1.42,0.452c-11.448,2.474-17.559,9.673-18.423,21.229
				c-0.277,3.705-2.104,5.011-5.484,5.749c-16.74,3.654-33.241,8.107-49.529,13.545c-10.331,3.449-14.743,10.852-17.693,20.174
				c3.521,1.231,3.561,1.389,2.682,4.786c-0.882,3.406-2.446,6.493-4.11,9.559c-1.032,1.903-2.602,3.608-2.698,6.296
				c12.456,0.248,24.697,1.432,36.964-0.144c6.809-0.875,13.646-0.63,20.48-0.175c1.726,0.115,3.474-0.097,5.198,0.034
				c1.967,0.149,5.236-2.218,5.604,0.835c0.358,2.965-3.35,2.701-5.536,2.69c-11.677-0.055-23.342-0.094-35.004,0.806
				c-7.926,0.612-15.852-0.158-24.088-1.04c1.107,1.688,1.853,3.088,1.5,4.766c-0.796,3.785-1.828,7.374-4.577,10.404
				c-5.49,6.051-11.85,10.945-18.788,15.166c-1.125,0.684-2.492,1.142-2.95,2.628C373.401,772.054,373.545,772.532,371.077,776.917z
				 M505.681,316.143c-4.798,2.931-7.075,7.171-10.044,10.757c-2.145,2.591-4.184,5.265-7.468,6.553
				c-1.519,0.596-3.119,1.42-4.411-0.201c-1.192-1.496,0.05-2.788,0.731-4.073c4.098-7.731,8.18-15.472,13.463-22.673
				c-3.395,0.821-6.658,1.626-10.008,1.036c-2.24-0.394-4.607-1.041-4.856-3.817c-0.226-2.522,1.636-3.732,3.738-4.496
				c3.561-1.294,6.439-3.556,9.41-5.869c7.041-5.481,13.641-11.616,21.587-15.829c1.706-0.905,2.33-1.803,2.385-3.619
				c0.197-6.451,0.259-12.925,0.9-19.338c0.397-3.966-1.072-5.189-4.726-5.555c-16.179-1.624-32.356-3.301-48.505-5.203
				c-18.996-2.237-38.025-4.082-57.086-5.664c-9.985-0.829-19.895-2.524-29.969-2.948c-0.519,1.703,0.485,2.948,0.996,4.281
				c0.553,1.443,1.196,3.168,0.042,4.227c-2.34,2.148-0.946,3.938,0.024,5.876c5.276,10.54,10.945,20.916,13.463,32.598
				c0.04,0.187,0.35,0.316,0.541,0.464c10.365-6.321,24.039-3.894,31.508,5.716c0.998,1.284,1.829,1.309,3.135,0.856
				c20.651-7.157,41.561-13.585,61.78-21.967c1.604-0.665,3.858-3.277,5.073-0.651c1.184,2.561-2.119,3.099-3.84,3.963
				c-14.053,7.053-29.253,11.07-43.942,16.441c-6.37,2.329-12.836,4.399-19.652,6.722c5.547,10.005,1.448,17.758-5.202,24.945
				c4.93,2.813,10.874,2.428,15.089,6.293c-1.62,1.798-3.148,1.063-4.494,0.697c-3.594-0.979-7.203-1.966-10.685-3.273
				c-2.353-0.883-4.353-0.871-6.756,0.003c-5.808,2.113-11.719,1.565-17.539-0.277c-5.445-1.723-8.351-5.777-9.822-11.106
				c-4.001,1.637-7.376,4.336-11.548,4.676c-4.368,0.355-8.008-1.236-10.201-6.073c-0.755,9.921-1.449,19.03-2.166,28.445
				c48.713,6.725,97.318,10.707,146.329,12.884c-0.352-4.092,0.964-7.139,1.32-10.938c-1.946,2.281-4.36,3.679-6.111,1.86
				c-2.263-2.352-4.141,0.806-6.001-0.367c-0.838-0.529-0.944-1.481-0.895-2.331c0.113-1.98,0.19-3.988,0.591-5.921
				C502.989,327.796,504.276,322.375,505.681,316.143z M534.584,454.828c0.153,2.04,1.193,3.746,2.173,5.47
				c24.378,42.894,48.759,85.786,73.142,128.677c3.255,5.726,6.485,11.467,9.808,17.153c2.596,4.442,5.151,4.956,8.995,1.698
				c1.442-1.222,2.967-2.228,4.585-3.145c31.571-17.893,63.141-35.786,94.711-53.68c2.981-1.69,3.573-3.726,1.963-6.782
				c-0.521-0.989-1.087-1.955-1.641-2.926c-27.581-48.358-55.166-96.715-82.741-145.077c-2.141-3.754-4.302-4.301-8.199-2.069
				c-16.607,9.51-33.218,19.016-49.843,28.496c-16.625,9.48-33.268,18.928-49.902,28.392
				C536.128,451.892,534.408,452.589,534.584,454.828z M439.186,21.503c-1.37-1.134-2.658-0.791-3.847-0.798
				c-10.99-0.07-20.857,3.848-30.55,8.513c-5.081,2.445-9.081,6.586-14.185,8.884c-7.379,3.323-12.65,9.03-17.905,14.859
				c-4.739,5.256-9.374,10.604-14.901,15.117c-7.878,6.432-15.139,13.224-20.425,22.331c-8.711,15.008-13.004,30.833-12.29,48.047
				c0.381,9.18,0.943,18.365,1.824,27.51c1.507,15.661,6.29,30.634,10.382,45.72c1.8,6.636,4.722,12.968,7.254,19.757
				c7.645-2.725,14.824-5.458,22.128-7.8c2.927-0.939,3.869-2.043,2.539-4.975c-2.234-4.925-3.117-10.254-3.382-15.569
				c-0.892-17.887-4.842-35.433-5.805-53.29c-0.385-7.135-1.235-14.377,1.621-21.373c0.963-2.359,0.923-5.053-0.703-7.34
				c-6.801,1.272-13.455,2.811-20-1.729c2.205-2.106,4.046-1.502,5.693-1.402c2.748,0.166,5.487,0.193,8.182-0.254
				c4.039-0.67,7.501-2.097,9.255-6.402c1.415-3.47,3.939-6.325,6.754-8.82c5.484-4.864,11.199-9.461,16.379-14.676
				c4.707-4.739,10.734-7.057,17.075-8.62c2.145-0.529,4.38-0.873,5.969,1.632c-2.164,2.584-5.811,1.448-8.195,3.629
				c3.093,2.454,4.163,6.037,5.158,9.613c0.996,3.578,1.469,7.331,2.741,10.798c3.88,10.574,11.332,18.153,20.787,23.986
				c7.11,4.386,15.36,4.423,23.254,6.304c-11.119-6.928-18.376-16.813-23.782-28.515c-2.573-5.569-4.187-10.889-4.028-17.078
				c0.14-5.442,0.861-11.421-4.583-15.471c-0.981-0.73-1.433-2.297-1.907-3.561c-2.385-6.364-1.773-12.659,0.466-18.942
				c1.893-5.314,2.27-5.633,7.804-4.99C429.085,37.119,434.719,29.544,439.186,21.503z M566.533,61.616
				c1.468,5.676,2.933,10.783,4.095,15.957c2.17,9.659,2.747,19.231,0.281,29.099c-2.256,9.028-4.487,18.066-6.906,27.053
				c-0.987,3.666-1.768,7.07,1.652,10.11c1.214,1.079,1.671,3.005,2.48,4.541c2.906,5.515,3.264,11.895,5.931,17.746
				c0.758-0.357,1.409-0.652,2.049-0.97c0.873-0.433,1.731-0.48,2.313,0.39c0.685,1.024,0.22,1.917-0.625,2.599
				c-0.868,0.701-1.878,1.239-2.693,1.992c-1.91,1.764-4.303,3.228-4.675,6.706c3.823-1.619,7.202-3.097,10.622-4.473
				c1.164-0.468,2.595-0.791,3.246,0.701c0.653,1.496-0.559,2.298-1.699,2.844c-3.136,1.502-6.386,2.782-9.455,4.405
				c-4.936,2.611-8.923,5.944-10.561,11.803c-2.136,7.64-4.914,15.101-7.447,22.628c-3.203,9.52-9.341,17.793-11.559,27.771
				c-1.36,6.117-5.158,11.19-8.94,16.739c8.991,3.86,16.9,8.663,23.895,15.208c0.883-1.306,1.521-2.201,2.108-3.127
				c9.577-15.092,18.999-30.287,28.774-45.25c6.273-9.602,10.983-19.678,12.445-31.165c0.751-5.905,1.401-11.879,2.857-17.629
				c4.342-17.136,6.915-34.405,3.505-51.949c-3.438-17.694-9.206-34.517-22.038-47.935
				C580.477,71.438,574.498,65.707,566.533,61.616z M316.737,471.394c0.526,5.859,1.292,11.384,1.47,16.928
				c0.565,17.562-2.253,34.928-3.302,52.399c-0.999,16.634-1.381,33.236,1.919,49.712c0.478,2.388,1.445,3.4,3.942,3.139
				c8.15-0.852,16.309-2.301,24.514-1.433c10.288,1.088,20.573,0.821,30.871,0.703c6.464-0.074,12.94,0.08,19.389-0.272
				c9.202-0.502,9.901-1.4,9.948-10.333c0.002-0.373,0.039-0.745,0.046-1.118c0.544-28.079,1.15-56.157,1.588-84.237
				c0.121-7.775-0.287-15.555-1.935-23.63C375.707,474.91,346.575,471.06,316.737,471.394z M483.308,29.086
				c-7.333-0.661-11.061-3.301-16.285-9.906c-3.595-4.546-3.619-9.177-1.214-14.249c-13.264,0.947-27.062,23.482-30.273,32.979
				c6.761-0.747,13.461-0.713,20.088,0.441c7.143,1.243,13.563,4.142,18.514,9.594c3.082,3.393,3.61,7.51,1.743,10.277
				c-1.395-0.66-1.313-2.101-1.454-3.229c-0.499-4.014-3.194-6.207-6.204-8.364c-3.287-2.356-6.86-2.509-10.715-2.574
				c-7.613-0.129-15.165-0.217-22.501,2.233c-1.412,0.472-2.916,0.76-3.38,2.531c-1.956,7.459-1.825,15.063-2.211,23.017
				c8.572-4.973,16.487-7.566,25.931-3.62c9.814,4.101,11.242,12.98,14.134,21.748c2.933-3.555,6.598-6.025,3.999-11.294
				c-1.173-2.379-0.747-5.55,0.78-7.939c7.034-11.01,15.527-18.156,28.416-15.414c23.339,4.966,42.259,16.295,52.065,39.4
				c0.279,0.656,0.426,1.44,1.76,1.839c0.306-5.253,0.777-10.394,0.872-15.543c0.206-11.204-1.81-22.276-2.201-33.455
				c-0.158-4.525-1.875-8.517-4.31-12.472c-4.391-7.135-10.936-11.699-17.321-16.664c-13.633-10.6-28.747-16.419-46.182-15.592
				c-2.233,0.106-4.475,0.012-6.713,0.016c-5.766,0.012-7.564,1.774-7.405,7.567C473.454,18.224,475.319,25.228,483.308,29.086z
				 M409.265,691.406c4.58-0.619,7.962-3.204,11.876-4.151c2.217-0.536,3.274-1.712,3.837-3.914
				c3.291-12.865,6.803-25.672,9.328-38.725c0.601-3.106,0.009-4.525-3.362-5.429c-54.461-14.605-108.88-29.366-163.313-44.075
				c-1.288-0.348-2.545-1.079-4.207-0.519c-5.437,12.586-10.102,25.722-17.789,37.414c-0.776,1.18,2.172,10.583,3.42,11.26
				c0.498,0.27,1.203,0.224,1.812,0.214c8.326-0.141,16.319,1.236,23.733,5.215c2.207,1.185,3.819,0.465,5.618-1.094
				c11.18-9.691,24.203-15.85,38.332-19.975c9.334-2.725,18.725-1.335,28.136-1.175c9.952,0.169,19.292,3.315,28.861,5.36
				c1.24,0.265,2.517,0.892,2.17,2.493c-0.327,1.51-1.674,1.755-2.968,1.582c-3.097-0.414-6.08,0.398-9.635,0.514
				c1.647,1.492,3.299,1.614,4.786,2.003c5.342,1.396,10.142,3.978,13.364,8.354c5.85,7.946,13.927,12.978,21.954,18.17
				c2.076,1.343,4.057,2.879,6.846,2.02c0.998-0.307,1.997,0.214,2.39,1.3c0.401,1.109-0.21,1.862-1.053,2.532
				c-1.154,0.917-2.809,1.037-3.859,2.525c2.4,0.874,4.806,1.529,7.008,2.602c3.976,1.937,4.249,5.549,0.688,8.139
				C414.425,686.092,411.729,688.231,409.265,691.406z M675.104,353.057c-2.186,0.88-3.204,2.939-4.561,4.695
				c-7.598,9.826-13.555,20.818-21.564,30.341c-1.441,1.714-1.415,2.934-0.314,4.856c11.675,20.381,23.247,40.82,34.822,61.259
				c16.474,29.09,32.951,58.178,49.339,87.317c1.272,2.261,2.623,2.91,5.237,2.844c12.072-0.304,23.926-2.726,35.951-3.413
				c2.299-0.131,4.236-1.271,6.014-3.143C745.063,476.244,710.094,414.669,675.104,353.057z M688.857,308.096
				c2.223,11.279,4.176,22.146,6.54,32.923c2.577,11.745,5.721,23.368,8.193,35.134c0.59,2.806,1.45,3.61,4.004,3.232
				c10.056-1.49,19.4-5.835,29.671-6.792c0-1.893,0-3.251,0-4.608c-0.006-19.148,0.045-38.297-0.082-57.444
				c-0.019-2.922,0.988-4.052,3.789-4.139c3.845-0.119,7.715-0.188,11.522-0.684c10.507-1.37,21.047-1.755,31.621-1.483
				c3.204,0.083,6.4,0.86,9.457,0.191c0.729-1.624,1.045-3.422,2.101-4.489c4.153-4.198,5.589-8.542,3.764-14.601
				c-1.568-5.205-2.335-6.753-7.584-5.353c-11.53,3.074-23.223,5.39-34.842,8.046C733.993,293.291,711.943,301.941,688.857,308.096z
				 M557.479,137.499c1.029-13.452-5.847-23.651-13.651-33.664c5.97-0.563,8.294,3.83,10.944,7.611
				c2.79,3.981,4.319,8.636,6.373,13.405c8.107-20.498,7.854-51.87-0.801-62.888c0.728,6.209-0.131,11.733-0.227,17.298
				c-0.095,5.458,0.074,11.049-1.089,16.312c-0.689,3.117-1.955,5.877-0.623,9.032c0.043,0.101-0.257,0.347-0.648,0.847
				c-3.062-2.965-4.42-6.892-6.145-10.477c-9.51-19.768-26.099-30.571-46.493-35.827c-12.796-3.298-19.17,0.884-27.628,12.486
				c-1.476,2.024-2.33,4.524-1.454,7.854c5.433-6.119,12.009-8.404,19.548-8.468c4.248-0.036,8.426,0.472,12.614,1.013
				c14.238,1.838,26.774,7.262,36.977,17.577c1.142,1.154,2.621,2.18,2.343,5.436c-15.285-13.309-32.102-20.731-51.799-20.434
				c-0.539,0.936,1.642,1.006,0.467,2.28c-10.541,1.188-18.111,7.426-24.456,15.687c-1.955,2.545-2.467,4.985-1.039,8.018
				c4.472-0.54,8.701-2.097,13.27-1.614c7.895,0.834,14.126,5.082,20.558,9.118c6.401,4.016,12.976,7.754,19.475,11.614
				c-12.117-11.321-22.444-25.822-42.714-23.614c0.955-0.77,1.115-0.974,1.322-1.051c0.581-0.216,1.172-0.414,1.774-0.558
				c10.006-2.397,18.623,1.082,25.851,7.408C525.059,114.88,540.088,127.529,557.479,137.499z M329.395,467.265
				c4.46,0,8.452-0.362,12.359,0.061c19.784,2.14,39.607,2.288,59.461,1.626c7.294-0.243,7.041-0.155,8.245,6.916
				c2.693,15.813,1.954,31.743,1.5,47.603c-0.462,16.13-1.68,32.24-1.634,48.394c0.021,7.48,0.069,7.557,7.588,7.919
				c0.124,0.006,0.249,0.001,0.372,0.011c2.241,0.17,3.4-0.359,3.889-3.071c5.667-31.4,10.621-62.925,16.708-94.252
				c1.098-5.653,2.561-11.339,2.512-17.621c-12.25-0.363-23.723-3.611-35.295-6.396c-3.609-0.869-7.333-1.267-11.009-1.852
				c-2.188-0.349-3.917-0.033-4.316,2.683c-0.221,1.508-1.286,2.279-2.9,2.352c-5.963,0.271-11.874-0.149-17.716-1.337
				c-12.135-2.468-24.259-4.993-36.624-7.544C331.509,457.5,330.546,461.949,329.395,467.265z M476.577,469.424
				c-1.384,2.77-0.052,4.769,0.601,6.804c1.514,4.717,3.884,9.309,4.509,14.132c1.478,11.416,4.898,22.292,7.977,33.28
				c1.342,4.79,2.997,9.452,5.435,13.842c1.109,1.997,2.3,2.52,4.485,2.021c3.502-0.8,7.059-1.446,10.627-1.854
				c8.508-0.972,8.723-1.113,9.349-9.66c0.018-0.248,0.026-0.497,0.044-0.744c0.923-12.877,1.917-25.75,2.737-38.634
				c0.342-5.377,0.719-10.818-1.396-16.336c-1.291,2.681,0.206,5.836-2.994,8.179c-1.671-4.939-0.131-9.794-1.092-14.643
				c-2.469,2.538-3.508,1.445-4.348-0.986c-2.405-6.96-5.495-13.591-9.999-19.477c-1.31-1.712-2.564-3.625-5.149-3.282
				c-0.631,1.495-0.337,2.727,0.107,3.875c4.29,11.085,6.503,22.623,7.623,34.41c0.153,1.611,0.641,3.234-1.413,4.135
				c-2.14-0.978-1.958-3.016-2.098-4.776c-0.904-11.337-3.146-22.356-7.634-32.852c-1.116-2.611-2.545-5.004-5.125-6.388
				c-1.057,0.941-1.198,1.964-1.04,2.939c0.811,5.013,1.173,10.166,4.008,14.616c1.613,2.532,2.232,5.267,1.719,8.195
				c-1.063,6.063-0.27,12.145-0.315,18.218c-0.012,1.609-0.082,3.223-0.233,4.825c-0.123,1.301-0.592,2.546-2.137,2.609
				c-1.357,0.056-1.783-1.113-2.223-2.17c-1.239-2.976-2.371-6.006-3.79-8.896C482.798,476.707,480.733,472.595,476.577,469.424z
				 M332.685,409.97c2.127-0.091,4.135,0.451,6.153,0.965c7.064,1.798,14.144,3.534,21.201,5.36
				c6.86,1.776,13.948,1.99,20.899,3.142c6.102,1.011,6.161,1.302,6.205,7.326c0.029,3.964-2.433,7.879,0.155,11.963
				c-3.837,1.241-4.545,4.188-4.874,7.414c-0.489,4.795-1.416,5.566-6.189,4.839c-9.453-1.441-18.934-2.7-28.238-5.03
				c-9.651-2.416-19.494-3.733-29.356-5.012c-3.851-0.499-5.525,1.242-7.48,4.19c11.146,1.336,21.674,3.765,32.297,5.625
				c12.589,2.205,24.822,6.164,37.608,7.354c5.189,0.483,4.924,0.546,5.747-4.465c0.823-5.009,1.359-10.076,2.398-15.03
				c1.757-8.381,3.989-16.661,5.963-24.997c0.673-2.842,1.173-5.724,1.777-8.715c-39.828-7.768-78.857-17.541-118.86-24.051
				c-3.882,16.462-6.58,33.439-10.594,50.27c3.016-4.101,5.621-8.24,8.247-12.362c1.217-1.91,1.949-3.866,0.869-6.294
				c-0.942-2.118,0.401-3.404,2.534-3.384c1.622,0.015,2.606-0.467,3.113-2.111c-0.555-0.708-1.326-1.384-1.701-2.234
				c-0.678-1.537-2.033-3.096-0.995-4.881c1.1-1.891,3.086-1.414,4.732-1.092c4.574,0.893,9.111,1.977,13.662,2.986
				c5.492,1.217,12.262-1.821,15.041-6.749c0.394-0.699,1.028-1.155,1.797-1.161c3.058-0.027,6.27-0.509,8.425,2.458
				C331.305,393.663,334.565,398.288,332.685,409.97z M540.549,144.261c-1.29-0.475-1.804,0.192-2.394,0.56
				c-11.804,7.344-24.895,9.707-38.494,9.398c-13.08-0.297-24.831-5.834-36.575-10.776c-6.825-2.872-13.677-5.189-20.945-6.301
				c-10.591-1.621-18.806-7.39-25.981-14.861c-2.613-2.72-4.728-5.92-7.35-9.257c-3.324,7.956-5.446,15.626-5.577,23.834
				c-0.043,2.693,0.796,3.893,3.441,4.626c38.403,10.653,76.794,21.352,115.132,32.234c3.901,1.107,6.187,0.026,8.739-2.711
				C537.666,163.371,537.588,153.301,540.549,144.261z M315.985,400.647c-2.173,0.285-3.779,1.521-5.533,2.377
				c-5.009,2.443-10.052,4.39-15.664,1.935c-3.673-1.607-6.066-0.053-8.043,3.068c-7.635,12.059-14.428,24.604-21.353,37.068
				c-1.432,2.577-3.571,4.793-4.362,7.897c4.535,3.572,9.065,7.139,13.596,10.708c1.002-0.782,1.66-1.342,2.364-1.837
				c4.944-3.476,8.781-8.6,14.852-10.385c7.884-2.318,13.921-7.32,19.779-12.777c6.44-5.999,12.553-12.378,19.742-17.543
				c0.877-0.63,1.765-1.4,1.281-3.07c-6.003,0.682-11.12,2.904-14.941,7.795c-0.844,1.08-2.01,2.333-3.403,1.082
				c-1.483-1.332-0.041-2.484,0.834-3.436c3.354-3.65,6.283-7.723,10.318-10.705c3.402-2.514,4.164-5.973,3.773-9.898
				c-0.134-1.345,0.011-2.932-1.467-3.584c-1.69-0.746-2.782,0.625-3.837,1.617c-5.907,5.557-10.68,12.07-15.533,18.517
				c-0.764,1.014-1.484,2.908-3.063,1.984c-1.789-1.048-0.546-2.663,0.224-3.868c2.811-4.401,6.011-8.517,9.371-12.514
				C315.9,403.91,317.491,402.835,315.985,400.647z M731.274,420.266c7.548,1.62,13.287,5.087,18.88,8.807
				c7.136,4.746,14.896,8.365,22.358,12.519c1.744,0.971,3.398,1.349,4.841-0.739c2.469-3.573,5.413-6.849,7.608-10.573
				c7.005-11.881,14.247-23.586,22.763-34.464c0.55-0.703,1.537-1.395,1.123-2.217c-7.762,0-15.32-0.124-22.872,0.043
				c-5.048,0.112-9.794,0.264-14.801,2.872c-7.894,4.111-15.225,8.985-23.409,13.486c11.239,7.264,24.056,11.331,31.179,23.086
				c-6.372-2.328-10.951-7.473-16.801-10.614c-6.094-3.273-12.346-6.278-17.969-10.302
				C740.008,414.785,736.04,417.275,731.274,420.266z M538.109,289.147c-3.788-2.645-7.566-4.874-10.841-7.688
				c-3.103-2.665-6.21-2.373-9.213-0.717c-4.34,2.394-8.274,5.446-12.175,8.544c-5.888,4.677-10.992,10.504-18.413,13.034
				c-0.439,0.15-0.912,0.42-0.85,1.432c2.118,1.332,4.496,0.98,6.894,0.368c2.281-0.582,4.527-1.415,6.843-1.719
				c2.554-0.335,3.736,1.326,2.79,3.706c-0.396,0.996-1.227,1.838-1.938,2.686c-4.92,5.869-8.523,12.524-12.472,19.858
				c2.389-1.111,3.046-2.655,3.998-3.935c3.111-4.182,5.91-8.684,10.455-11.516c1.784-1.111,3.399-4.146,5.584-2.667
				c2.277,1.541,0.332,4.338-0.126,6.521c-1.058,5.04-2.299,10.042-3.466,15.059c0.291,0.081,0.582,0.161,0.873,0.242
				c1.926-4.519,3.77-9.057,4.892-13.898c0.341-1.472,0.842-3.624,3.029-2.918c1.846,0.596,1.165,2.419,0.839,3.884
				c-1.136,5.112-3.197,9.921-4.808,14.876c-0.501,1.541-1.503,3.175-0.113,4.792c1.024-0.189,1.433-0.815,1.698-1.506
				c2.177-5.673,4.953-11.12,6.436-17.056c0.381-1.526,0.488-3.287,2.942-3.435c1.928,5.525-0.032,11.892,3.354,17.166
				c0.895-0.706,0.946-1.605,1.21-2.426c2.235-6.952,2.261-14.606,6.121-21.004C535.69,304.143,537.005,296.774,538.109,289.147z
				 M679.036,349.275c14.284,25.011,28.189,49.357,42.197,73.886c14.927-11.082,30.861-19.919,47.548-29.346
				c-4.878,0-8.82-0.008-12.763,0.002c-5.716,0.014-11.431,0.065-17.147,0.049c-1.545-0.004-3.344-0.199-2.498-2.437
				c1.831-4.844,0.479-9.712,0.849-14.945c-4.65,0.592-8.732,1.459-12.767,2.674c-6.403,1.928-12.729,4.218-19.568,4.168
				c-2.616-0.019-4.627-1.087-4.79-3.664c-0.35-5.538-2.952-10.478-3.742-15.89c-0.976-6.679-2.598-13.223-4.794-19.862
				C687.428,346.103,683.747,348.405,679.036,349.275z M532.655,125.751c-0.684,2.102-2.101,1.475-3.526,1.021
				c-2.629-0.838-4.964-2.245-7.292-3.672c-9.091-5.574-18.269-11.011-27.238-16.773c-7.201-4.626-14.826-5.157-22.874-3.379
				c-0.566,0.125-1.477,0.401-1.556,0.757c-1.325,5.958-4.302,11.775-1.374,18.098c4.451,9.612,13.28,13.989,23.727,13.047
				c14.419-1.299,28.461-4.879,42.927-6.293C535.031,127.213,533.885,126.698,532.655,125.751z M361.849,253.7
				c1.961,5.946,0.9,11.607,0.555,17.286c-0.301,4.955-2.014,9.722-1.715,14.75c0.381,6.384,4.472,11.353,10.706,12.019
				c4.136,0.442,8.357,0.084,13.168,0.084c-4.482-2.979-5.77-6.769-5.321-11.32c0.17-1.718,1.082-2.802,2.69-3.131
				c1.876-0.384,2.732,0.914,3.147,2.449c0.808,2.987,2.043,5.827,2.646,8.9c0.542,2.763,1.293,5.66,4.063,7.461
				c3.818-20.746-7.188-37.021-14.952-54.714C372.144,250.419,367.373,252.114,361.849,253.7z M390.386,33.032
				c16.031-10.711,31.993-18.227,51.645-15.392c2.307-3.451,5.809-6.894,9.392-10.784c-1.605-0.414-2.432-0.728-3.285-0.833
				c-10.604-1.308-21.194-2.746-31.822-3.821c-9.029-0.913-18.108-1.166-27.191-0.815c-2.706,0.105-4.455,1.243-3.709,4.142
				c0.649,2.523-0.498,6.428,4.324,6.296c4.097-0.112,8.203,0.063,12.305,0.113c4.245,0.052,8.412,0.749,12.559,1.573
				c0.961,0.191,2.131,0.394,1.9,1.775c-0.182,1.088-1.234,1.173-2.078,1.129c-1.856-0.096-3.712-0.276-5.554-0.527
				c-6.856-0.934-13.729-0.749-20.538-1.001C387.435,21.326,391.659,26.39,390.386,33.032z M424.575,291.244
				c-0.747-2.581-2.265-4.169-4.192-5.406c-6.547-4.202-13.753-3.526-20.926-2.636c-1.38,0.171-3.256,1.057-2.995,2.804
				c0.583,3.908,0.198,7.803-0.087,11.913c3.278-0.056,6.019,0.367,8.323,2.705c-2.333,2.412-5.561,1.21-8.147,2.635
				c1.108,3.634-1.798,5.125-4.024,6.818c2.461,4.068,4.62,8.048,9.636,9.313c4.463,1.125,8.801,1.408,14.181,0.222
				c-4.212-2.685-8.573-3.036-11.99-5.78c2.163-1.502,3.871-0.939,5.471-0.397c2.818,0.955,5.574,2.094,8.36,3.146
				c1.154,0.436,2.233,0.905,3.527,0.131c5.004-2.99,8.385-11.991,6.724-17.646c-0.943-3.21-2.322-4.395-5.812-2.987
				c-3.334,1.345-6.711,3.054-11.433,2.966C414.963,294.226,420.109,293.527,424.575,291.244z M347.308,788.694
				c2.938,0.056,4.117,3.248,7.171,3.394c15.012,0.72,29.808,3.533,44.758,4.888c5.175,0.469,10.273,1.892,15.537,1.349
				c1.491-0.154,3.013-0.098,3.355-2.151c0.658-3.949,0.997-7.836-1.069-11.515c-16.947,2.399-33.442,1.902-49.498-4.776
				C361.521,784.027,354.34,786.083,347.308,788.694z M463.641,138.999c5.042,2.931,10.721,4.271,16.037,6.488
				c17.558,7.324,34.816,6.139,51.841-1.653c4.351-1.992,8.299-4.674,12.268-8.535c-6.568-2.068-12.579-2.161-18.263-0.773
				c-9.553,2.333-19.302,3.433-28.965,4.218C485.69,139.628,474.654,141.406,463.641,138.999z M550.694,181.71
				c4.344-11.828,8.048-23.449,10.446-35.609c-2.478,1.639-3.442,1.477-5.427-1.286c-2.169-3.018-4.302-6.007-7.792-7.54
				c-4.296,4.199-4.629,9.758-5.794,14.889c-1.919,8.449-4.027,16.709-10.602,22.974c-0.195,0.186-0.111,0.664-0.177,1.152
				C537.746,178.082,544.076,179.855,550.694,181.71z M471.974,650.412c-7.114-1.92-14.009-3.781-21.173-5.714
				c-2.386,12.571-6.873,24.15-8.957,36.626c6.87-1.505,13.257-2.962,19.675-4.271c1.754-0.358,1.932-1.472,2.283-2.876
				c1.019-4.077,1.002-8.657,3.675-12.009C470.191,658.763,471.066,654.944,471.974,650.412z M381.553,134.357
				c2.408-8.228,5.402-15.708,7.357-23.546c1.96-7.861,4.527-15.57,6.879-23.517c-1.904,0.076-2.689,1.126-3.587,1.938
				c-4.79,4.331-9.312,9.002-14.394,12.956c-5.673,4.414-8.936,10.495-12.776,16.228c-0.516,0.77-0.149,1.408,0.065,2.103
				c0.739,2.4,1.079,4.849,0.804,7.356c-0.135,1.225-0.008,2.142,1.454,2.531C372.014,131.646,376.646,132.983,381.553,134.357z
				 M433.194,101.169c5.19-3.277,9.262-7.674,15.817-7.792c6.1-0.109,11.592,1.562,16.755,4.736
				c2.401-7.425-1.344-16.691-7.908-19.766c-8.168-3.827-16.645-3.228-25.064-0.84c-2.135,0.605-3.484,1.895-2.914,4.702
				c0.735,3.624,1.223,7.375,1.16,11.06C430.988,96.288,431.544,98.867,433.194,101.169z M476.73,136.061
				c-2.629-2.111-5.168-4.046-8.049-5.548c-9.232-4.812-11.909-11.658-9.112-21.699c0.964-3.46,3.234-5.95,5.537-8.472
				c-9.555-6.686-18.842-6.445-27.469,0.444c-1.303,1.04-2.828,2.534-2.219,4.011c1.542,3.738,2.69,7.794,5.758,11.109
				c3.782-9.757,5.247-11.513,9.486-11.649c-5.516,8.259-6.929,12.352-5.525,16.425c1.039-1.853,0.52-4.627,3.241-5.251
				c0.609,1.144,0.195,2.108-0.044,3.051c-0.97,3.817,0.233,6.501,3.486,8.904C459.29,132.904,467.894,134.812,476.73,136.061z
				 M606.731,76.204c-5.089-2.727-9.691-5.154-14.254-7.652c-2.61-1.429-5.163-2.962-7.729-4.47
				c-0.896-0.527-1.743-1.266-1.227-2.38c0.636-1.372,1.856-0.888,2.914-0.516c0.462,0.163,0.893,0.435,1.308,0.706
				c6.445,4.207,13.723,7.006,19.861,11.72c1.396,1.072,2.5,0.751,3.616-0.286c1.271-1.182,0.48-2.321-0.258-3.291
				c-0.739-0.97-1.578-1.976-2.596-2.606c-15.219-9.406-31.526-16.681-47.69-24.235c-0.123-0.057-0.386,0.186-1.045,0.53
				c2.031,5.307,2.333,11.328,8.806,14.36c8.21,3.845,14.68,10.09,20.688,16.788c2.219,2.474,3.307,5.842,6.361,8.002
				C598.607,80.026,602.937,79.183,606.731,76.204z M399.351,139.335c-0.527-10.565,2.299-19.663,7.357-28.161
				c0.399-0.67,0.581-1.797,0.304-2.489c-2.265-5.672-2.176-11.949-4.599-17.568c-0.607-1.408-0.893-3.114-2.918-3.254
				c-5.312,15.737-8.412,31.903-14.471,47.459C389.887,136.684,394.269,137.911,399.351,139.335z M345.742,235.537
				c1.905,4.76,3.725,8.969,5.255,13.281c0.701,1.976,1.613,2.404,3.577,1.906c7.216-1.831,14.374-3.805,21.06-7.17
				c1.188-0.598,2.593-1.083,1.841-3.009c-1.532-3.924-2.924-7.902-4.454-11.826c-0.585-1.499-1.445-2.455-3.42-1.727
				C361.841,229.855,354.031,232.583,345.742,235.537z M253.245,453.361c-2.891,3.278-5.627,6.38-8.86,10.046
				c11.341,4.723,19.32,13.306,28.772,20.012c3.303-2.781,6.297-6.079,6.779-9.744c0.452-3.438-4.551-3.905-6.799-6.091
				c-0.175-0.17-0.415-0.271-0.618-0.414C266.147,462.686,260.45,457.266,253.245,453.361z M518.21,541.097
				c-1.1-0.231-1.591-0.471-2.039-0.407c-7.959,1.128-15.911,2.297-23.867,3.444c-1.286,0.185-2.013,0.931-2.185,2.164
				c-0.523,3.749-1.466,7.472-0.975,11.256c9.766,0,19.324,0,29.211,0C517.783,551.906,516.879,546.632,518.21,541.097z
				 M525.909,274.692c1.538,1.991,3.21,3.243,4.965,4.418c4.636,3.107,9.375,6.022,14.293,8.684
				c5.076,2.748,4.973,2.939,7.847-1.991c4.217-7.232,4.238-7.256-1.975-12.701c-5.277-4.625-11.537-7.513-17.947-10.337
				C530.325,266.674,529.055,271.079,525.909,274.692z M229.643,748.2c3.37-3.915,8.255-3.746,11.762-6.454
				c-0.418-0.233-0.712-0.466-1.047-0.574c-14.875-4.775-28.066-12.477-39.711-22.857c-0.804-0.717-1.555-1.245-2.634-0.721
				c-2.399,1.164-5.175,1.765-7.132,4.921C202.001,733.911,217.946,737.821,229.643,748.2z M489.271,481.397
				c-0.659-9.007,2.87-18.393-2.858-26.797c-0.787-1.155-0.836-2.836-1.144-4.29c-0.454-2.138,0.062-4.432-0.912-6.626
				c-5.513,1.488-9.41,5.582-14.372,7.637c0.67,4.619,2.327,8.624,4.159,12.562c0.453,0.973,0.81,2.08,2.141,2.376
				c3.141,0.698,5.01,3.117,6.867,5.423C485.542,474.649,487.266,478.057,489.271,481.397z M428.412,684.977
				c8.513-1.04,8.334-1.08,9.981-8.34c1.675-7.38,3.808-14.655,5.63-22.003c0.885-3.572,2.371-7.04,2.291-10.903
				c-2.485-1.039-4.886-1.837-7.657-1.935C436.648,656.487,432.547,670.519,428.412,684.977z M249.044,590.078
				c-1.26,1.162-1.327,2.475-1.6,3.632c-2.186,9.264-5.64,18.22-6.338,27.861c-0.188,2.595-1.949,5.091,1.314,6.895
				c7.605-10.85,11.578-23.345,17.005-35.577C255.501,591.826,252.191,590.93,249.044,590.078z M227.895,584.197
				c3.538,3.115,4.123,7.14,4.33,11.298c0.197,3.962,0.247,7.914-0.237,11.874c-0.615,5.024,2.034,11.436,5.371,13.183
				c-0.105-11.003,4.657-20.951,6.641-31.717C238.692,586.911,233.079,586.469,227.895,584.197z M564.702,151.351
				c-3.693,10.576-6.292,21.012-10.541,31.132c2.622,0.832,5.398,2.856,7.461,1.531c2.217-1.424,5.041-3.256,4.982-6.888
				c-0.037-2.276,1.125-4.289,2.551-6.071c0.617-0.771,1.504-1.507,1.154-2.598C568.478,162.744,566.578,157.051,564.702,151.351z
				 M352.158,434.75c-8.173-1.685-16.823-0.828-24.109-5.89c-3.334,2.339-6.267,4.955-9.107,8.854
				c11.412,0.389,21.623,2.899,32.24,4.929C351.517,439.935,351.813,437.541,352.158,434.75z M628.139,394.759
				c-4.903-4.792-8.037-10.407-11.151-16.035c-0.559-1.011-1.368-1.53-2.446-0.933c-1.707,0.946-3.769,1.24-5.323,2.84
				c3.078,6.484,6.379,12.793,10.376,18.989C622.507,397.963,625.158,396.455,628.139,394.759z M477.145,431.635
				c-6.957,3.276-10.186,11.516-6.823,17.522c4.016-3.208,7.895-6.575,12.947-8.645
				C481.007,437.233,479.068,434.422,477.145,431.635z M389.68,306.235c-1.974-1.621-2.481-4.242-5.291-4.222
				c-4.677,0.033-9.355,0.009-14.273,0.009c0.876,2.037,1.857,4.018,2.59,6.087c1.196,3.372,3.631,3.933,6.538,2.806
				C382.682,309.582,385.989,307.909,389.68,306.235z M366.413,445.785c3.779,1.407,7.561,2.216,11.696,1.386
				c0.433-2.735,0.85-5.371,1.253-7.919c-1.495-1.067-3.042-0.997-4.475-1.224c-8.085-1.275-8.09-1.248-8.697,7.036
				C366.183,445.176,366.258,445.294,366.413,445.785z M331.317,426.234c0.337,0.761,0.966,0.842,1.559,1.022
				c5.624,1.711,11.47,2.059,17.252,2.777c1.127,0.14,2.56,0.683,2.952-1.233c0.395-1.929-0.845-2.316-2.279-2.631
				c-3.759-0.825-7.619-1.364-11.237-2.605C335.866,422.299,333.44,423.474,331.317,426.234z M478.698,430.802
				c2.119,3.072,4.055,5.88,6.193,8.98c2.445-3.552,5.138-2.437,7.933-0.696C490.876,431.593,484.585,427.795,478.698,430.802z
				 M335.726,414.841c1.911,0.902,0.275,4.071,2.42,4.671c5.098,1.427,10.217,2.827,15.412,3.277
				c1.441-2.621,0.786-3.841-1.89-4.382C346.331,417.328,341.037,416.042,335.726,414.841z M432.549,74.54
				c9.045-2.201,17.941-2.444,27.147,1.271C453.071,67.776,440.815,67.37,432.549,74.54z M369.072,421.59
				c-0.955,3.181-0.199,4.856,2.942,5.237c2.075,0.252,4.096,0.916,6.159,1.296c4.335,0.799,5.257-0.181,4.429-5.113
				C378.151,423.22,373.791,421.685,369.072,421.59z M354,443.137c3.199,0.563,5.764,1.749,8.718,1.327
				c-0.138-2.868,1.257-5.309,0.639-8.071c-2.598-0.319-4.9-1.379-7.743-0.823C355.112,437.923,354.606,440.295,354,443.137z
				 M425.116,70.614c0-6.21,0-12.42,0-18.631C421.897,58.223,421.622,64.442,425.116,70.614z M464.894,122.498
				c-1.316-6.295-0.816-11.596,2.313-16.453c0.746-1.158,1.224-2.185-0.388-2.991C461.025,108.332,459.965,116.541,464.894,122.498z
				 M379.328,431.228c-3.042-0.461-6.063-0.908-9.08-1.38c-1.131-0.177-1.948,0.016-2.055,1.373
				c-0.099,1.268,0.613,1.702,1.719,1.921c2.887,0.572,5.76,1.212,8.644,1.796c0.182,0.037,0.413-0.174,0.655-0.285
				C379.646,433.756,379.658,432.805,379.328,431.228z M365.481,420.835c-2.402-0.067-4.789-1.194-7.347-0.802
				c-0.694,4.024,0.687,4.904,6.894,4.634C365.661,423.578,365.931,422.426,365.481,420.835z M356.911,430.692
				c1.348,0.296,2.651,0.773,3.968,0.816c1.27,0.041,3.185,1.387,3.692-0.932c0.509-2.326-1.715-1.89-2.939-2.362
				c-0.679-0.262-1.456-0.258-2.17-0.443C356.81,427.082,356.533,428.477,356.911,430.692z M470.804,5.538
				c-4.055,4.026-4.02,7.791,0.041,11.56C470.443,13.098,469.582,9.305,470.804,5.538z M259.903,766.698
				c2.838,1.55,5.675,3.099,8.748,4.777c0.15-1.967-0.437-3.259-1.209-4.693C264.967,767.057,262.527,766.843,259.903,766.698z
				 M366.046,772.303c-4.04,1.436-7.228,2.569-10.854,3.857C360.84,777.575,362.372,777.062,366.046,772.303z M445.612,40.986
				c-4.43-0.849-8.734-1.017-12.39,2.287C437.41,42.822,441.394,41.277,445.612,40.986z M238.03,752.612
				c2.286,2.558,4.815,4.749,8.53,6.085C245.138,753.898,241.067,754.037,238.03,752.612z"/>
			<path d="M314.121,255.134c2.607,2.077,2.565,4.438,0.628,7.333c3.877,1.523,7.413,3.244,11.139,4.289
				c4.503,1.263,5.354,2.574,3.09,6.799c-5.23,9.759-11.16,19.113-17.574,28.11c-9.906,13.895-17.697,29.069-26.86,43.408
				c-4.748,7.43-9.262,15.012-13.732,22.614c-1.763,2.998-3.837,3.405-6.829,1.979c-11.217-5.348-22.443-10.698-33.103-17.089
				c-5.201-3.118-9.96-6.969-14.946-10.452c-3.227-2.254-3.722-5.023-1.287-8.397c-9.377-6.028-19.743-9.326-29.328-14.925
				c5.485-13.759,15.051-25.16,22.549-38.238c-3.565-3.12-7.212-6.253-10.792-9.461c-4.062-3.64-3.673-4.884,0.166-8.88
				c5.068-5.274,9.541-11.116,14.326-16.665c16.149-18.729,32.321-37.439,48.49-56.152c4.022-4.654,5.53-4.827,10.124-0.894
				c17.56,15.034,35.331,29.826,52.42,45.402c4.589,4.182,4.62,5.711,0.598,10.576C320.28,248.023,317.254,251.469,314.121,255.134z
				 M262.404,192.392c-20.512,23.839-40.836,47.459-61.287,71.229c19.297,16.776,38.503,33.475,57.908,50.345
				c20.482-23.916,40.907-47.766,61.521-71.836C300.662,225.929,281.795,209.068,262.404,192.392z M258.111,351.428
				c15.176-32.588,34.703-62.386,54.232-92.678c-2.226,0.205-2.761,1.632-3.595,2.589c-15.922,18.27-31.798,36.581-47.711,54.859
				c-4.225,4.852-5.389,4.92-10.359,0.713c-12.524-10.603-25.016-21.243-37.544-31.84c-0.89-0.753-1.552-1.966-3.256-1.908
				c-6.47,11.312-13.737,22.235-21.101,33.462C211.798,328.313,235.95,337.085,258.111,351.428z M262.745,364.849
				c2.17-4.445,4.077-8.33,5.966-12.223c5.271-10.868,12.041-20.87,18.11-31.275c8.377-14.362,16.115-29.067,23.706-43.849
				c1.521-2.961,2.396-6.253,3.578-9.39c0.295-0.784,0.26-1.465-0.546-1.907c-0.819-0.449-1.453-0.044-1.928,0.579
				c-0.601,0.787-1.208,1.593-1.655,2.471c-4.072,7.996-9.373,15.238-14.194,22.758c-10.609,16.548-20.258,33.63-29.435,50.991
				c-1.859,3.518-3.774,6.875-6.429,9.95c-2.058,2.383-3.138,1.935-5.457,0.669c-10.997-6.004-21.543-12.888-33.293-17.448
				c-1.122-0.435-2.51-1.806-3.506,0.141c-0.946,1.85,0.534,2.696,1.765,3.544c2.25,1.55,4.622,2.94,6.771,4.618
				C237.186,353.06,250.064,358.161,262.745,364.849z M266.435,366.519c19.269-32.095,39.543-63.5,59.91-95.062
				c-3.185-1.384-5.62-2.442-8.053-3.499C304.138,302.64,282.092,332.894,266.435,366.519z M298.016,214.909
				c-0.361-1.618-1.156-3.002-3.056-3.05c-1.381-0.035-2.333,0.816-2.339,2.299c-0.007,1.822,1.196,2.616,2.813,2.805
				C296.845,217.128,297.808,216.516,298.016,214.909z"/>
			<path d="M612.121,296.903c-4.768-10.828-1.536-19.954,6.077-27.635c4.533-4.574,10.584-6.922,17.191-6.801
				c1.693,0.031,2.647-0.103,3.621-1.572c1.129-1.703,2.553-3.972,5.012-2.735c2.138,1.076,3.003,3.474,2.184,5.793
				c-1.022,2.895,1.101,3.659,2.648,4.939c3.106-0.948,5.405-3.105,7.997-4.759c1.579-1.007,3.216-1.3,4.23,0.409
				c2.258,3.807,5.882,6.569,7.373,11.046c1.849,5.552,6.571,9.541,9.1,14.873c1.767,3.725,1.554,5.97-1.611,8.947
				c-11.62,10.931-25.137,19.434-37.249,29.716c-3.493,2.965-6.802,6.182-10.828,8.491c-2.412,1.383-4.317,1.574-5.801-1.326
				c-4.685-9.156-13.016-15.193-19.593-22.735c-5.9-6.767-5.803-7.088,1.916-11.584
				C606.958,300.472,609.555,299.036,612.121,296.903z M618.054,296.608c0.544,2.625,1.437,5.291,3.99,6.377
				c9.046,3.848,19.395,1.659,25.122-6.013c4.633-6.205,3.95-17.172-1.012-24.122c-3.549-4.971-11.187-7.296-16.91-5.389
				c-9.453,3.15-13.626,10.313-14.62,19.564c-0.309,2.879,0.115,6.235,3.124,8.218C617.85,295.698,617.952,296.153,618.054,296.608z
				 M630.571,331.496c0.41-1.716,1.929-2.502,3.115-3.481c7.378-6.094,14.718-12.245,22.634-17.648
				c5.871-4.007,11.034-8.867,16.476-13.396c2.01-1.673,2.127-3.009,0.986-5.341c-2.421-4.947-6.923-8.592-8.649-13.869
				c-1.323-4.046-3.951-7.027-6.853-10.078c-2.399,1.55-4.749,3.069-7.152,4.622c1.487,3.382,1.949,6.842,2.864,10.178
				c2.763,10.077-2.065,19.968-12.319,24.585c-10.372,4.669-21.313,2.534-27.922-6.469c-1.419,0.724-2.723,1.552-3.611,4.003
				c2.012,1.78,4.424,3.586,6.439,5.76c5.81,6.269,11.159,12.884,13.993,21.139c-2.457-0.389-3.98-2.061-4.935-4.102
				c-4.095-8.755-10.74-15.555-17.119-22.696c-2.028,0.627-3.722,1.733-5.304,3.496c7.182,9.121,17.36,15.381,22.087,25.813
				C627.889,333.627,628.67,331.527,630.571,331.496z"/>
			<path d="M224.349,170.688c-3.613-0.18-7.555-0.144-11.536,0.342c-5.103,0.623-9.056-2.224-9.213-7.238
				c-0.296-9.454-1.838-19.091,2.811-28.142c1.907-3.712,4.807-5.252,8.691-5.172c7.695,0.158,15.387,0.461,23.08,0.727
				c6.307,0.218,12.544-1.739,18.924-0.25c6.517,1.521,13.146,2.557,19.707,3.902c5.243,1.075,11.181,8.837,11.428,14.805
				c0.199,4.784,0.062,9.543-0.688,14.296c-1.156,7.325-3.614,9.457-10.934,8.663c-8.585-0.932-17.12,0.216-25.677,0.348
				c-4.752,0.074-9.431-0.126-14.007-1.529C232.926,170.212,228.8,170.688,224.349,170.688z M283.429,154.847
				c1.053-4.745-0.051-8.455-2.531-12.016c-2.263-3.249-5.624-3.908-9.05-4.465c-8.412-1.367-16.614-4.508-25.327-3.367
				c-3.471,0.455-6.922,0.711-10.399,0.511c-6.687-0.385-13.373-0.815-20.052-1.315c-3.485-0.261-5.494,1.322-6.881,4.441
				c-2.532,5.692-1.368,11.585-1.891,17.942C232.954,154.754,258.046,152.342,283.429,154.847z M207.243,160.233
				c0.283,5.909,1.163,7.075,5.467,6.589c10.18-1.149,20.253-1.16,30.265,1.448c2.224,0.579,4.686,0.348,7.036,0.318
				c9.294-0.122,18.609-1.412,27.867,0.013c3.099,0.477,4.455-0.566,5.127-3.232c0.505-2.005,1.223-4.018,0.452-6.399
				C258.067,156.095,232.778,158.634,207.243,160.233z"/>
			<path d="M146.704,414.422c1.67-0.117,2.825,0.884,3.75,2.346c12.359,19.523,24.773,39.012,37.057,58.582
				c2.545,4.054,2.248,4.782-1.842,7.409c-9.717,6.241-19.489,12.395-29.232,18.594c-2.225,1.416-3.149-0.249-4.085-1.731
				c-4.111-6.514-8.194-13.046-12.278-19.576c-7.839-12.535-15.715-25.046-23.491-37.62c-4.216-6.818-3.919-7.797,2.802-11.991
				c7.694-4.802,15.384-9.609,23.086-14.398C143.721,415.257,144.895,414.244,146.704,414.422z M152.18,492.258
				c9.996-6.324,19.591-12.394,29.341-18.562c-10.974-17.712-21.794-35.176-32.558-52.55c-10.14,6.336-19.82,12.385-29.744,18.586
				C130.154,457.157,141.098,474.596,152.18,492.258z M170.65,483.668c-1.768,0.096-3.137,0.862-3.192,2.825
				c-0.054,1.931,1.25,2.98,3.036,3.086c1.843,0.109,3.121-0.9,3.202-2.837C173.779,484.78,172.553,483.87,170.65,483.668z"/>
			<path d="M147.176,234.461c1.364,0.789,1.475,1.793,1.608,2.783c2.3,17.093,4.808,34.15,6.255,51.363
				c0.664,7.898,0.671,15.864,1.954,23.723c0.331,2.028,1.491,3.661,1.897,5.605c0.24,1.148,1.287,2.467-0.377,3.216
				c-1.404,0.632-2.27-0.474-3.045-1.504c-6.051-8.03-11.966-16.168-18.199-24.055c-11.616-14.7-21.553-30.729-34.924-44.045
				c-2.636-2.625-2.174-4.36,1.375-5.719c11.057-4.233,22.593-6.712,34.181-8.889C141.07,236.344,144.221,235.888,147.176,234.461z
				 M145.688,239.311c-13.556,2.822-26.957,5.583-40.137,10.247c17.732,19.502,31.869,41.122,48.12,61.198
				C150.973,286.931,149.217,263.101,145.688,239.311z"/>
			<path d="M584.624,385.963c0.018,2.874-2.383,5.441-4.912,5.469c-3.066,0.035-2.759-2.147-3.097-4.358
				c-4.008-26.176-3.355-52.772-7.208-78.953c-0.353-2.4-0.175-4.375,2.598-4.783c2.927-0.431,3.048,2.162,3.422,3.945
				c2.067,9.847,3.453,19.819,4.371,29.823c0.986,10.754,2.252,21.471,3.579,32.181
				C584.081,374.961,583.275,380.731,584.624,385.963z M576.862,347.61c0.717,10.695,1.189,21.417,3.241,31.967
				C580.075,368.808,578.146,358.244,576.862,347.61z"/>
			<path d="M563.564,334.707c0.749,16.239,1.503,32.478,2.241,48.717c0.068,1.487,0.115,2.983,0.031,4.466
				c-0.094,1.667-0.889,2.909-2.721,2.921c-1.698,0.011-2.33-1.187-2.488-2.696c-0.464-4.443-1.239-8.881-1.315-13.331
				c-0.365-21.342-1.933-42.666-1.001-64.029c0.064-1.464,0.098-2.902,1.832-3.16c1.811-0.27,2.706,1.048,3.153,2.559
				c0.716,2.422,0.382,4.933,0.393,7.408c0.025,5.713,0.008,11.426,0.008,17.139C563.654,334.704,563.609,334.706,563.564,334.707z"
				/>
			<path d="M196.407,396.358c0.299-1.721-0.858-3.858,1.427-4.355c2.39-0.52,3.253,1.565,3.847,3.277
				c5.04,14.523,9.726,29.141,11.247,44.559c0.17,1.721,0.691,3.405,0.957,5.12c0.189,1.22,0.433,2.651-1.116,3.161
				c-1.816,0.598-2.492-0.832-2.827-2.167c-1.568-6.253-3.247-12.49-4.487-18.811c-1.508-7.685-4.128-15.036-6.207-22.555
				c-0.561,3.738,0.95,7.07,1.969,10.5c0.635,2.138,1.278,4.279,1.766,6.453c0.261,1.163-0.085,2.304-1.444,2.626
				c-1.22,0.289-1.916-0.508-2.119-1.569c-1.023-5.368-4.172-10.116-4.519-15.691c-0.076-1.211-0.419-2.498-0.982-3.57
				C192.141,399.948,192.206,397.331,196.407,396.358z"/>
			<path d="M304.796,491.688c-0.311,3.872-0.367,7.565-0.939,11.176c-2.211,13.945-3.756,27.993-6.535,41.85
				c-0.525,2.618-1.314,4.967-3.923,6.549c-2.096-1.871-2.111-4.177-1.816-6.523c1.705-13.519,3.463-27.031,5.145-40.552
				c0.336-2.7,0.78-5.461,0.544-8.139c-0.355-4.026,1.475-5.026,4.971-4.53C302.957,491.619,303.686,491.617,304.796,491.688z"/>
			<path d="M466.627,556.141c0.094,3.935-5.104,11.347-7.787,12.273c-1.515,0.523-2.711,0.117-3.592-1.128
				c-3.578-5.059-7.241-10.064-10.64-15.242c-2.698-4.109-2.316-5.273,1.692-8.172c1.808-1.308,3.64-2.586,5.064-4.354
				c1.294-1.608,3.209-2.001,4.597-0.73C461.412,543.778,464.103,550.465,466.627,556.141z M450.521,553.564
				c2.764,3.667,5.323,7.062,7.9,10.481c6.349-6.091,6.268-8.664-0.319-15.346C455.735,550.217,453.362,551.74,450.521,553.564z
				 M453.964,542.269c-1.911,1.521-3.815,3.055-5.742,4.559c-0.724,0.566-1.403,1.113-0.707,2.112
				c0.545,0.782,1.215,0.604,1.942,0.228c2.372-1.225,5.061-1.971,6.719-4.455C455.53,543.785,455.123,542.742,453.964,542.269z"/>
			<path d="M200.827,245.546c-1.205-1.379-2.174-2.487-3.368-3.854c8.175-9.702,15.305-20.289,23.005-30.453
				c2.021-2.668,3.962-5.398,5.982-8.067c0.817-1.079,1.644-2.19,2.654-3.072c0.97-0.848,2.206-1.255,3.335-0.12
				c0.99,0.996,0.593,2.06-0.001,3.064c-1.326,2.241-2.455,4.645-4.065,6.664c-8.977,11.255-16.684,23.477-26.178,34.334
				C201.871,244.404,201.541,244.757,200.827,245.546z"/>
			<path d="M547.19,360.655c0.103,6.225-2.421,9.087-8.577,9.793c-3.467,0.398-6.742-1.455-7.968-4.748
				c-1.178-3.164-1.032-6.559-1.231-9.868c-0.052-0.872,0.497-1.99,1.128-2.656c2.805-2.955,6.601-3.867,10.404-3.936
				c2.724-0.05,5.786,4.761,6.23,8.821C547.27,358.916,547.19,359.789,547.19,360.655z M543.324,360.925
				c0.005-4.057-1.786-7.57-3.821-7.494c-4.219,0.158-5.941,1.937-5.958,6.156c-0.02,4.633,1.419,6.879,4.387,6.852
				C541.382,366.408,543.319,364.427,543.324,360.925z"/>
			<path d="M305.19,484.616c-2.332,0.155-4.715,0.314-7.03,0.468c-1.138-2.04-0.295-3.381,1.045-4.351
				c1.51-1.093,3.308-0.967,4.871-0.11C305.532,481.422,305.873,482.819,305.19,484.616z"/>
			<path d="M199.305,248.044c-1.526,1.682-2.723,4.294-5.031,2.527c-2.323-1.778-0.274-3.619,1.105-5.193
				C196.897,245.786,197.972,246.741,199.305,248.044z"/>
			<path d="M766.329,317.019c1.575,0.715,1.463,2.228,1.686,3.501c2.997,17.109,2.431,34.379,2.294,51.629
				c-0.006,0.735-0.12,1.492-0.326,2.198c-0.291,1.001-0.831,1.886-2.079,1.684c-1.037-0.168-1.324-1.016-1.38-1.937
				c-0.046-0.743-0.038-1.489-0.045-2.234c-0.124-12.162-0.239-24.325-0.381-36.487c-0.017-1.407-0.188-2.812-0.732-4.203
				c-0.21,15.076,0.96,30.209-2.378,44.994c-0.699-0.031-1.398-0.063-2.097-0.094c1.741-18.269,0.415-36.568,1.244-54.592
				c1.363-1.192,1.448,0.95,2.395,0.424C765.583,320.463,764.142,318.085,766.329,317.019z"/>
			<path d="M756.092,379.514c-1.158-2.856-0.29-5.514-1.045-7.993c-0.52,1.215-0.244,2.833-1.943,3.406
				c-1.748-0.721-1.548-2.333-1.503-3.755c0.444-14.16,0.919-28.319,1.43-42.477c0.052-1.454-0.038-3.006,0.995-4.247
				c6.003,3.286,4.952,9.13,5.188,14.421c0.558,12.537,1.285,25.092-1.608,37.488C757.381,377.316,757.329,378.325,756.092,379.514z
				"/>
			<path d="M775.252,320.942c3.448,11.805,3.355,24.028,4.053,37.091c3.321-10.749,2.745-21.117,4.462-31.214
				c0.881,6.465,1.809,12.902,1.284,19.395c-0.751,9.299-2.483,18.448-4.812,27.48c-0.328,1.273-0.421,3.01-2.236,2.942
				c-1.526-0.057-1.656-1.786-2.02-2.823c-1.26-3.59-0.688-7.392-0.796-11.097C774.783,348.819,774.285,334.918,775.252,320.942z"/>
			<path d="M796.274,325.189c2.224,3.663,2.09,7.744,2.241,11.549c0.464,11.662,0.73,23.352-1.413,34.923
				c-0.226,1.219-0.455,2.453-0.852,3.622c-0.359,1.056-0.937,2.284-2.319,1.926c-1.337-0.346-1.331-1.668-1.201-2.795
				c0.442-3.822,0.964-7.634,1.411-11.455c1.272-10.899,0.375-21.847,0.732-32.766C794.924,328.577,794.328,326.7,796.274,325.189z"
				/>
			<path d="M816.799,365.379c-0.166,3.221-0.237,6.451-0.543,9.658c-0.127,1.335-0.646,2.934-2.463,2.647
				c-1.766-0.279-1.816-1.833-1.606-3.251c0.877-5.933,0.457-11.903,0.578-17.858c0.027-1.311-0.326-3.128,1.562-3.215
				c1.841-0.084,1.883,1.814,1.949,3.074c0.154,2.971,0.049,5.956,0.049,8.935C816.483,365.373,816.641,365.376,816.799,365.379z"/>
			<path d="M808.365,350.293c0.899,0.349,1.3,0.855,1.317,1.496c0.198,7.422,1.05,14.862-0.463,22.246
				c-0.294,1.437-0.497,3.369-2.532,2.892c-1.658-0.389-1.392-2.119-1.078-3.482c1.467-6.36,0.868-12.842,1.199-19.27
				C806.879,352.803,806.377,351.113,808.365,350.293z"/>
			<path d="M618.054,296.608c-0.102-0.454-0.204-0.909-0.306-1.364c-1.443-4.156-0.926-8.387-0.165-12.529
				c1.199-6.531,10.881-13.971,17.067-13.016c6.118,0.945,9.876,4.991,11.861,10.633c1.853,5.264,2.158,10.493-1.786,15.122
				C637.626,303.786,626.107,304.274,618.054,296.608z"/>
			<path d="M289.03,754.27c-3.578-1.915-7.303-2.381-11.145-2.289c-2.429,0.058-4.301-0.383-3.507-3.633
				c-2.465,0.761-1.64,3.579-3.299,4.668c-6.214-0.827-5.375-3.045-5.25-6.841c0.132-3.996,1.365-7.819,2.981-11.452
				c1.134-2.549,3.085-4.505,5.682-5.648c1.488-0.655,3.244-1.251,4.563-0.003c1.402,1.326,0.039,2.732-0.523,4.042
				c-1.536,3.582-3.078,7.161-4.784,11.129c3.289-0.117,6.126-2.034,8.496,0.303c0.338,1.815-1.492,2.068-1.915,3.619
				c2.34,0.498,4.698,0.904,7.001,1.517c2.294,0.611,4.76,1.329,5.119,4.165c0.23,1.815-0.669,3.463-2.408,4.271
				c-2.57,1.194-5.162,1.575-7.688-0.609C283.901,754.856,287.355,756.865,289.03,754.27z M269.782,747.655
				c1.087-4.836,3.604-9.161,5.09-14.35C271.497,736.304,270.002,740.501,269.782,747.655z"/>
			<path d="M382.816,701.876c-2.018-2.982-0.715-5.415,0.787-7.505c0.949-1.322,2.389-0.719,2.494,0.921
				C386.263,697.893,385.63,700.282,382.816,701.876z"/>
			<path d="M377.748,696.188c0.533,2.531-0.049,4.33-1.807,5.533c-0.685,0.469-1.578-0.31-1.539-1.091
				C374.5,698.658,374.777,696.656,377.748,696.188z"/>
			<path d="M211.869,549.415c0.168,5.633-2.575,9.462-4.175,13.632c-0.281,0.733-1.144,1.002-1.898,0.578
				c-0.984-0.554-1.275-1.591-1.075-2.586C205.621,556.562,207.896,552.93,211.869,549.415z"/>
			<path d="M229.731,667.501c0.963,4.463-1.868,11.395-5.212,13.142C223.042,676.513,225.853,669.078,229.731,667.501z"/>
			<path d="M198.382,580.495c1.463,3.734,0.243,6.876-0.542,10.018c-0.158,0.632-0.745,0.973-1.443,0.877
				c-0.682-0.094-1.01-0.593-1.268-1.185C194.262,588.213,195.904,582.567,198.382,580.495z"/>
			<path d="M239.644,480.128c-1.707-0.328-2.896-1.149-2.818-2.927c0.097-2.206,1.639-3.271,3.61-3.531
				c1.529-0.201,2.85,0.666,2.707,2.277C242.961,478.008,241.758,479.568,239.644,480.128z"/>
			<path d="M211.314,661.4c2.3,2.333,2.911,4.66,3.262,7.073c0.124,0.848,0.029,1.811-1.102,1.977
				c-0.821,0.12-1.43-0.406-1.694-1.135C210.926,666.956,210.033,664.58,211.314,661.4z"/>
			<path d="M200.281,616.446c-3.263-2.444-4.316-7.395-2.275-10.445C200.168,609.407,199.442,613.093,200.281,616.446z"/>
			<path d="M228.725,521.902c-0.438-0.441-0.723-0.591-0.761-0.787c-0.528-2.788,0.395-4.872,3.111-5.926
				c0.815-0.317,1.616,0.191,1.594,1.037C232.598,519.006,231.489,521.096,228.725,521.902z"/>
			<path d="M220.897,533.689c0.642,3.572-0.111,5.786-3.587,7.214C216.59,537.483,217.416,535.315,220.897,533.689z"/>
			<path d="M213.508,698.508c-0.081-4.166,1.848-5.88,4.902-7.778C218.367,694.495,216.801,696.445,213.508,698.508z"/>
			<path d="M206.444,645.592c-2.371-2.053-2.39-4.542-1.741-8.163C207.767,640.257,206.986,642.961,206.444,645.592z"/>
			<path d="M506.648,613.319c2.502,4.113,2.227,7.515,0.998,10.96c-0.308,0.864-0.968,1.465-1.963,1.325
				c-0.681-0.096-1.094-0.684-1.064-1.313C504.787,620.813,504.611,617.258,506.648,613.319z"/>
			<path d="M457.727,733.94c-2.339-4.123-1.585-7.641-1.334-11.083c0.045-0.614,0.653-1.037,1.357-0.993
				c1.009,0.064,1.599,0.773,1.777,1.627C460.241,726.933,459.542,730.115,457.727,733.94z"/>
			<path d="M464.583,716.051c2.221-4.251,5.408-7.59,9.058-10.518C472.274,710.492,468.84,713.654,464.583,716.051z"/>
			<path d="M450.892,687.191c0.107-1.01,0.02-2.882,1.639-2.506c2.652,0.617,2.382,3.42,2.907,5.471
				c0.289,1.126-0.103,2.295-1.515,2.517C452.424,692.909,450.902,690.196,450.892,687.191z"/>
			<path d="M503.762,637.343c1.848,5.318,1.34,8.336-1.507,10.39C501.327,644.204,501.768,641.208,503.762,637.343z"/>
			<path d="M519.326,569.971c-0.266,1.442-0.753,2.821-2.47,2.718c-1.894-0.114-2.3-1.725-2.351-3.238
				c-0.046-1.361,0.72-2.505,2.186-2.488C518.519,566.984,519.102,568.397,519.326,569.971z"/>
			<path d="M494.355,668.695c0.76-3.824,2.447-7.098,5.153-9.842C498.457,662.49,498.225,666.528,494.355,668.695z"/>
			<path d="M456.884,706.826c2.001,0.232,2.016,1.779,2.174,2.999c0.198,1.531,0.404,3.725-1.625,3.799
				c-2.08,0.075-1.335-2.135-1.423-3.453C455.938,709.102,455.865,707.961,456.884,706.826z"/>
			<path d="M486.556,685.837c0.221,4.367-0.255,5.351-3.418,7.35C483.174,690.265,483.953,687.989,486.556,685.837z"/>
			<path d="M488.608,279.233c-0.587,0.977-1.1,2.009-1.772,2.923c-5.426,7.384-10.6,14.898-15.172,22.884
				c-5.745,10.034-13.277,18.817-21.293,27.149c-0.514,0.534-1.058,1.065-1.672,1.471c-1.155,0.764-2.49,1.597-3.648,0.223
				c-1.038-1.231-0.12-2.393,0.788-3.243c12.564-11.772,21.655-26.435,32.796-39.391
				C482.009,287.326,484.44,282.641,488.608,279.233z"/>
			<path d="M394.892,248.818c3.7-2.308,7.531-1.756,11.081-1.634c6.794,0.233,13.569,1.053,20.35,1.649
				c1.675,0.147,3.585,0.551,3.39,2.59c-0.203,2.115-2.257,1.501-3.623,1.368c-8.997-0.874-17.975-1.958-27.021-2.259
				C397.724,250.486,396.347,250.295,394.892,248.818z"/>
			<path d="M395.815,255.239c1.316-1.391,2.861-1.19,4.308-1.034c6.783,0.733,13.561,1.523,20.335,2.336
				c1.102,0.132,2.2,0.415,3.259,0.756c0.834,0.269,1.691,0.77,1.575,1.806c-0.143,1.28-1.226,1.503-2.248,1.41
				c-8.152-0.74-16.334-1.27-24.36-3.014C397.527,257.249,396.18,257.044,395.815,255.239z"/>
			<path d="M399.54,261.356c7.704-0.084,15.634-2.191,22.774,2.539C414.575,264.414,406.891,264.456,399.54,261.356z"/>
			<path d="M661.258,573.562c-6.235-10.984-12.345-21.786-18.49-32.568c-12.717-22.315-25.304-44.706-38.239-66.895
				c-7.098-12.176-13.305-24.864-21.164-36.605c-2.838-4.24-2.452-5.265,2.08-7.815c16.352-9.2,32.711-18.386,49.08-27.555
				c5.105-2.86,6.274-2.507,9.09,2.457c22.752,40.088,45.464,80.199,68.327,120.224c2.61,4.57,4.228,9.452,6.07,14.286
				c0.908,2.383-0.579,3.59-2.489,4.683c-12.942,7.405-25.857,14.857-38.759,22.332
				C671.833,568.962,666.948,571.893,661.258,573.562z M665.904,527.173c-0.798,3.722,2.414,5.53,3.503,8.395
				c3.971-1.368,5.029-5.125,7.967-6.842c-1.16-2.129-1.935-3.937-3.42-5.3c-2.843,1.348-5.511,2.612-8.178,3.877
				c1.969-2.456,5.473-2.835,7.629-5.622c-1.643-2.359-2.465-5.24-4.792-7.512c-2.904,1.651-5.665,3.22-8.963,5.094
				C662.376,521.827,662.223,525.844,665.904,527.173z M696.963,509.513c0.748-3.936-2.57-5.961-3.731-9.052
				c-1.747,0.801-3.207,1.18-4.014,2.694c1.485,2.483,2.434,5.308,4.55,7.321c1.234-0.404,2.271-0.744,3.308-1.084
				c-0.365,1.419-2.443,1.265-2.673,3.054c2.748,4.794,5.57,9.714,8.255,14.398c1.621,0.569,2.439-1.272,3.767-0.575
				c-0.341,1.322-2.23,1.254-2.37,2.997c2.414,4.177,4.941,8.548,7.515,13.002c1.636-0.477,3-1.147,4.227-2.606
				c-5.537-9.601-11.041-19.123-16.512-28.664C698.739,510.046,698.079,509.469,696.963,509.513z M642.191,486.135
				c-0.66,1.371,0.234,2.389,0.83,3.441c1.96,3.458,3.955,6.895,5.945,10.336c1.899,3.284,3.807,6.563,5.843,10.07
				c3.053-2.106,6.189-3.068,8.711-5.472c-4.321-7.575-8.588-15.055-12.836-22.501c-2.023,0.794-3.518,1.382-5.014,1.969
				c4.34-3.319,4.337-3.317,1.648-8.083c-0.61-1.081-1.18-2.185-1.788-3.267c-5.214-9.277-10.433-18.551-15.77-28.039
				c-3.389,1.86-6.573,3.376-9.378,5.62c5.996,12.014,13.526,22.85,19.799,34.407C640.632,485.447,641.323,485.892,642.191,486.135z
				 M650.559,529.557c-12.204-22.234-24.632-43.793-37.23-65.43c-2.687,1.483-5.142,2.84-7.092,4.848
				c2.815,6.947,34.271,61.523,37.19,64.512c0.728-0.366,1.509-0.725,2.256-1.141C647.188,531.508,648.673,530.638,650.559,529.557z
				 M691.905,553.41c-3.953-7.071-7.217-14.097-12.16-20.565c-2.621,2.634-6.228,2.924-8.846,5.204
				c1.268,2.416,2.254,4.79,5.098,6.723c-3.993,2.32-7.526,4.372-11.191,6.501c2.723,4.497,5.256,8.68,7.915,13.071
				C679.096,560.712,685.393,557.122,691.905,553.41z M610.483,455.582c7.035,12.284,13.797,24.092,20.751,36.232
				c2.444-1.9,5.268-2.353,7.165-4.79c-7.175-11.659-12.685-24.171-20.356-35.787C615.496,452.701,613.169,454.038,610.483,455.582z
				 M614.701,417.537c-6.524,3.773-12.696,7.344-19.121,11.06c3.11,5.511,5.997,10.63,8.952,15.867
				c2.642-1.823,5.33-2.61,7.045-4.803c-2.122-5.042-6.099-9.053-6.801-14.606c4.104,3.865,5.815,9.261,9.192,13.81
				c3.278-1.826,6.55-3.198,9.23-5.696C620.346,427.921,617.631,422.926,614.701,417.537z M670.737,565.39
				c-6.335-11.529-12.228-22.805-19.043-33.701c-2.654,1.491-5.151,2.52-7.212,4.376c5.113,11.889,12.14,22.504,18.474,33.815
				C665.799,568.24,668.242,566.83,670.737,565.39z M625.796,431.997c2.407-1.387,4.402-2.537,6.188-3.566
				c-0.005-2.027-1.722-3.189-0.955-5.232c1.168,1.35,2.183,2.524,3.259,3.768c2.325-1.138,4.517-2.187,6.525-4.053
				c-2.961-5.086-5.867-10.077-8.831-15.169c-2.558,1.175-4.722,2.268-6.676,3.842c1.16,2.581,2.247,5,3.755,8.355
				c-2.964-2.198-3.121-5.731-5.641-6.115c-2.323-0.354-4.708,1.052-6.805,2.828C619.648,421.722,622.617,426.684,625.796,431.997z
				 M677.246,521.805c5.419,10.115,10.279,20.534,16.795,30.269c2.256-1.072,4.362-1.988,6.114-3.628
				c-5.72-10.126-11.361-20.115-17.026-30.144C680.838,519.283,678.932,520.107,677.246,521.805z M652.078,511.393
				c-4.519-7.957-8.764-15.432-13.066-23.005c-2.701,1.452-5.009,2.559-7.206,4.509c4.301,7.57,8.546,15.044,12.947,22.79
				C647.346,514.168,649.542,512.88,652.078,511.393z M681.731,495.01c-4.406-7.674-8.651-15.067-12.956-22.564
				c-2.513,0.936-4.536,1.997-6.452,3.694c4.227,7.4,8.397,14.698,12.647,22.139C677.272,497.166,679.256,496.207,681.731,495.01z
				 M655.156,448.405c-2.596,1.024-4.744,2.077-6.562,3.885c4.218,7.26,8.348,14.37,12.603,21.693
				c2.328-1.367,4.211-2.473,6.351-3.729C663.391,462.922,659.377,455.846,655.156,448.405z M646.366,453.182
				c-2.396,1.319-4.608,1.873-6.418,3.687c4.291,7.367,8.567,14.707,12.999,22.315c2.156-1.432,3.874-2.574,5.825-3.87
				C654.606,467.88,650.565,460.672,646.366,453.182z M672.591,499.449c-4.3-7.541-8.461-14.839-12.696-22.267
				c-2.3,1.103-4.473,1.619-6.088,3.527c4.264,7.46,8.488,14.848,12.723,22.257C668.875,502.028,670.735,501.129,672.591,499.449z
				 M670.988,471.2c5.645,9.93,11.19,19.685,16.712,29.398c1.876-0.521,3.21-1.034,4.179-2.579
				c-5.527-9.727-11.07-19.482-16.556-29.136C673.469,469.213,672.364,469.96,670.988,471.2z M593.325,429.87
				c-2.918,1.593-5.426,2.638-7.569,4.594c3.129,5.221,6.207,10.357,9.295,15.51c2.642-1.573,4.938-2.941,7.437-4.429
				C599.355,440.187,596.43,435.184,593.325,429.87z M671.023,544.839c-2.941-5.219-5.653-10.032-8.487-15.06
				c-2.602,1.583-4.883,2.972-7.375,4.488c2.91,5.097,5.715,10.01,8.537,14.952C666.222,547.71,668.434,546.387,671.023,544.839z
				 M661.657,528.641c-1.24-2.884-2.62-5.425-4.4-7.599c-2.025,0.174-3.252,2.224-5.41,1.649c0.477-2.442,3.382-2.117,4.164-4.146
				c-0.771-1.549-1.335-3.308-2.967-4.608c-2.332,1.33-4.541,2.591-6.976,3.98c2.901,5.156,5.608,9.969,8.56,15.214
				C656.645,530.948,659.38,530.632,661.657,528.641z M685.597,516.638c3.113,5.428,5.977,10.424,9.003,15.699
				c2.237-1.508,4.372-2.187,6.041-4.054c-2.889-5.084-5.745-10.108-8.711-15.327C689.675,514.268,687.874,515.314,685.597,516.638z
				 M669.673,468.909c1.784-0.85,3.275-1.184,4.152-2.852c-4.019-7.095-8.075-14.257-12.12-21.399
				c-1.919,0.812-3.38,1.163-4.239,2.853C661.471,454.532,665.511,461.614,669.673,468.909z M695.28,533.486
				c2.674,4.651,5.222,9.084,7.846,13.648c2.333-1.311,4.238-2.381,6.193-3.479c-2.743-4.783-5.29-9.222-7.833-13.657
				C699.073,530.98,697.168,531.8,695.28,533.486z M640.403,438.3c2.516,4.214,4.766,7.982,7.138,11.955
				c2.289-1.397,4.501-2.171,6.368-4.021c-2.225-3.988-4.403-7.894-6.654-11.93C644.738,435.772,642.733,436.941,640.403,438.3z
				 M638.74,439.441c-2.531,1.217-4.661,2.147-6.507,4.031c2.26,3.932,4.504,7.835,6.865,11.941c2.293-1.45,4.141-2.62,6.258-3.959
				C643.117,447.389,641,443.545,638.74,439.441z M634.229,406.76c2.914,5.199,5.735,10.23,8.543,15.24
				c1.835-0.784,3.226-1.307,4.46-2.767c-2.849-5.053-5.735-10.172-8.624-15.296C636.784,404.571,635.562,405.329,634.229,406.76z
				 M618.79,447.663c3.328-2.28,6.652-3.417,9.291-5.776c-1.071-2.13-1.893-4.183-3.597-5.837c-3.205,1.525-6.283,2.992-9.125,5.344
				C616.486,443.453,617.532,445.364,618.79,447.663z M656.168,445.114c1.765-0.751,3.17-1.229,4.241-2.769
				c-2.194-3.811-4.428-7.691-6.833-11.868c-1.563,1.433-3.344,1.577-4.169,3.305C651.624,437.497,653.827,441.19,656.168,445.114z
				 M680.461,507.568c1.425,2.966,2.798,5.491,4.666,7.8c2.227-0.872,4.173-1.83,6.079-3.564c-1.554-2.555-2.519-5.436-4.789-7.677
				C684.379,505.305,682.499,506.391,680.461,507.568z M596.033,451.871c1.273,2.267,2.198,4.506,4.07,6.489
				c2.427-1.524,4.698-2.951,7.21-4.528c-1.319-2.202-2.069-4.412-3.914-6.068c-0.663,0.318-1.233,0.55-1.762,0.853
				C599.836,449.645,598.049,450.698,596.033,451.871z M601.265,460.641c3.223,7.107,3.686,7.184,11.17,2.149
				c-1.035-2.043-1.928-4.182-3.779-6.075C606.221,458.008,603.849,459.268,601.265,460.641z M671.959,512.612
				c1.52,2.644,2.567,5.289,4.531,7.51c2.213-0.747,4.116-1.719,5.793-3.442c-1.454-2.591-2.819-5.022-4.199-7.481
				C675.714,510.055,673.917,511.066,671.959,512.612z M612.872,442.524c-2.358,1.265-4.694,2.519-7.19,3.858
				c1.094,2.426,1.957,4.546,3.675,6.324c2.499-1.343,4.985-2.398,7.099-4.225C615.539,446.36,614.593,444.385,612.872,442.524z
				 M665.066,507.203c-3.308,1.722-6.251,3.165-8.852,5.262c1.042,1.784,1.501,3.65,3.306,4.693c2.807-1.556,5.709-2.88,8.342-5.08
				C666.954,510.494,666.113,509.027,665.066,507.203z M639.427,436.117c2.215-1.562,4.66-2.227,6.419-4.113
				c-0.962-2.159-1.903-4.15-3.53-5.834c-2.35,0.967-4.51,2.093-6.462,3.727C636.701,432.079,637.713,434.03,639.427,436.117z
				 M627.342,434.764c1.114,1.975,2.178,3.863,3.387,6.007c2.363-1.387,4.731-2.081,6.577-4.071
				c-1.18-2.002-2.284-3.874-3.464-5.876C631.442,432.069,629.325,432.993,627.342,434.764z M682.561,496.776
				c-2.168,1.403-4.1,2.654-6.071,3.929c0.976,1.867,1.515,3.669,3.13,4.838c1.992-1.09,4.082-1.878,5.694-3.509
				C684.948,500.069,683.758,498.632,682.561,496.776z M671.179,510.312c1.913-0.882,3.867-1.757,5.444-3.349
				c-0.759-1.831-1.37-3.542-3.122-4.751c-1.783,1.191-3.975,1.743-5.32,3.598C669.056,507.446,669.503,509.147,671.179,510.312z
				 M644.624,425.006c1.01,2.229,1.947,4.197,3.516,6.023c1.494-0.852,3.042-1.317,4.082-2.71c-0.917-2.048-1.761-4.09-3.401-5.674
				C647.215,422.927,646.051,423.812,644.624,425.006z"/>
			<path d="M626.354,534.173c0.046,1.789-1.005,2.512-2.08,3.148c-7.481,4.43-14.975,8.839-22.472,13.243
				c-3.025,1.777-5.369,1.22-7.133-1.942c-6.78-12.154-13.573-24.302-20.464-36.393c-1.438-2.523-1.14-4.156,1.206-5.953
				c7.152-5.482,15.238-9.318,23.201-13.34c2.123-1.072,4.399,0.018,5.688,2.266c7.174,12.504,14.337,25.014,21.489,37.531
				C626.088,533.258,626.237,533.868,626.354,534.173z"/>
			<path d="M680.248,573.073c-1.281-0.063-2.046-0.414-2.427-1.313c-0.442-1.042-0.167-2,0.652-2.701
				c1.903-1.629,4.105-2.786,6.447-3.628c0.982-0.353,1.972-0.103,2.633,0.855c0.562,0.815,0.611,1.739-0.018,2.423
				C685.467,570.955,682.777,572.18,680.248,573.073z"/>
			<path d="M701.983,560.479c-0.127,1.533-4.572,4.684-6.383,4.562c-1.733-0.117-2.753-1.099-2.672-2.874
				c0.085-1.855,3.97-4.264,6.43-4.058C700.881,558.236,701.907,558.935,701.983,560.479z"/>
			<path d="M713.762,551.648c0.09,2.867-5.014,6.191-7.198,5.056c-1.301-0.677-1.823-1.951-1.094-3.096
				c1.441-2.267,3.736-3.55,6.378-3.836C713.11,549.634,713.669,550.808,713.762,551.648z"/>
			<path d="M723.272,543.56c2.157,0.378,3.142,1.66,3.131,3.624c-0.011,2.105-1.313,3.218-3.305,3.18
				c-2.161-0.041-2.916-1.63-2.951-3.539C720.108,544.694,721.414,543.774,723.272,543.56z"/>
			<path d="M673.949,576.457c-0.424,1.875-1.766,2.815-3.598,3.055c-1.45,0.19-2.467-0.553-2.401-2.051
				c0.092-2.116,1.742-2.841,3.505-3.108C672.861,574.14,673.779,574.883,673.949,576.457z"/>
			<path d="M344.222,192.8c0.047-1.47,0.355-2.921,1.955-2.601c2.278,0.455,2.187,2.71,2.483,4.451
				c0.23,1.353-0.407,2.7-1.944,2.434C344.333,196.671,344.827,194.28,344.222,192.8z"/>
			<path d="M347.308,212.031c-0.022,1.494-0.294,2.844-1.959,2.652c-2.229-0.256-2.467-2.146-2.51-3.911
				c-0.033-1.358,0.644-2.664,2.079-2.553C347.27,208.403,347.03,210.533,347.308,212.031z"/>
			<path d="M354.253,211.627c0.067,1.251-0.565,1.746-1.565,1.573c-1.638-0.283-2.567-1.336-2.593-3.023
				c-0.016-1.047,0.402-2.195,1.567-2.017C353.543,208.448,353.62,210.374,354.253,211.627z"/>
			<path d="M594.37,107.82c0.813,0.509,1.44,0.721,1.788,1.157c0.774,0.968,1.68,2.906,0.844,3.225
				c-2.203,0.843-2.491,4.069-5.03,3.912c-1.539-0.095-2.393-1.612-2.887-3.03c-0.178-0.511-0.145-1.462,0.181-1.72
				C590.897,110.073,593.494,110.365,594.37,107.82z"/>
			<path d="M592.663,100.349c0.105,1.413-0.391,2.284-1.36,2.132c-2.028-0.319-3.712-1.386-4.182-3.546
				c-0.22-1.01,0.645-1.628,1.609-1.548C590.795,97.558,591.904,98.99,592.663,100.349z"/>
			<path d="M363.753,564.529c-7.625,0.393-16.434,0.255-25.243-0.555c-3.17-0.292-4.412-1.434-3.907-4.724
				c1.851-12.053,3.199-24.084,0.547-36.275c-1.185-5.446-0.102-6.146,5.244-7.048c13.598-2.294,27.241-1.645,40.894-0.896
				c4.231,0.232,8.427,0.004,12.642-0.47c4.476-0.503,4.977,0.161,4.935,4.52c-0.043,4.487-0.512,8.907-1.336,13.32
				c-0.986,5.28-1.248,10.629-0.212,15.934c0.729,3.735,0.272,7.39-0.002,11.112c-0.243,3.3-2.055,4.038-4.828,4.397
				C383.326,565.031,374.139,564.617,363.753,564.529z M380.042,529.763c-1.069,3.982-1.893,7.342-2.882,10.653
				c-1.087,3.636-3.633,5.804-7.275,6.758c-3.648,0.956-4.572-2.194-6.287-4.143c-1.83-2.08-2.843-4.981-6.147-6.077
				c-2.964,5.267-7.147,9.5-12.515,11.877c-5.368,2.377-6.466,6.144-5.824,11.657c5.995-0.131,11.841,1.275,17.836,0.633
				c5.325-0.57,10.65-0.371,16.004,0.013c5.548,0.398,11.156,1.112,16.702-0.209c1.294-0.308,3.207-0.287,3.428-1.753
				c0.967-6.429,1.059-13.122-1.49-19.002C389.615,535.614,385.13,532.459,380.042,529.763z M394.612,518.559
				c-19.044,1.56-37.827-1.298-56.815,2.135c2.559,8.919,3.707,17.59,2.273,26.316c1.271,0.562,1.987-0.149,2.688-0.541
				c4.531-2.533,8.076-6.079,10.902-10.448c2.376-3.674,4.105-3.845,7.666-1.366c2.106,1.466,3.318,3.65,4.87,5.576
				c1.022,1.269,1.567,3.556,3.727,3.107c2.235-0.464,3.421-2.323,3.999-4.499c0.892-3.359,1.823-6.709,2.657-10.083
				c0.757-3.063,2.179-3.764,5.088-2.139c4.092,2.285,7.433,5.492,11.365,9.196C393.548,529.597,395.35,524.382,394.612,518.559z"/>
			<path d="M376.005,576.382c-10.799-0.302-20.905-2.275-31.078-0.591c-0.482,0.08-1.017,0.099-1.481-0.026
				c-1.69-0.456-4.361-0.168-4.254-2.565c0.103-2.307,2.554-1.005,3.961-1.356c11.472-2.864,22.937-0.364,34.408-0.04
				c2.83,0.08,5.672-0.435,8.513-0.557c1.61-0.069,3.567-0.108,3.588,2.161c0.017,1.867-1.647,2.287-3.206,2.37
				C382.753,575.977,379.086,576.949,376.005,576.382z"/>
			<path d="M367.59,493.723c-9.171,0-18.341,0.026-27.512-0.026c-1.463-0.008-3.333-0.123-3.289-2.149
				c0.042-1.958,1.889-1.707,3.165-1.616c15.001,1.069,29.991-0.255,44.986-0.162c1.607,0.01,3.22-0.262,4.822-0.197
				c1.282,0.052,2.573,0.503,2.495,2.148c-0.065,1.379-1.129,1.85-2.347,1.874c-3.721,0.071-7.446,0.038-11.165,0.151
				c-3.721,0.114-7.438,0.356-11.156,0.542C367.59,494.1,367.59,493.912,367.59,493.723z"/>
			<path d="M363.436,580.065c6.189,0,12.377-0.016,18.566,0.012c1.499,0.007,3.324,0.03,3.407,2.006
				c0.091,2.164-1.836,1.966-3.279,1.984c-12.873,0.154-25.745,0.292-38.618,0.384c-1.619,0.012-3.559-0.153-3.664-2.263
				c-0.119-2.387,2.04-2.179,3.539-2.198c6.682-0.086,13.366-0.037,20.049-0.037C363.436,579.989,363.436,580.027,363.436,580.065z"
				/>
			<path d="M374.085,501.93c-11.066,0.888-22.007-0.74-32.989-1.603c-1.313-0.103-3.013-0.322-2.854-2.188
				c0.143-1.682,1.698-1.604,2.917-1.442c15.77,2.097,31.612,2.138,47.477,1.876c1.647-0.027,4.876-1.052,4.823,1.732
				c-0.053,2.757-3.094,1.545-4.877,1.586C383.752,502.003,378.917,501.93,374.085,501.93z"/>
			<path d="M358.792,487.87c-4.57,0-9.774,0.005-14.977-0.005c-0.99-0.002-2,0.054-2.964-0.124c-1.403-0.258-3.425-0.267-3.25-2.252
				c0.198-2.247,2.122-1.304,3.529-1.287c9.026,0.108,18.054,0.275,27.079,0.171c3.327-0.038,6.689,0.552,10.001-0.299
				c1.263-0.324,2.746-0.412,3.082,1.127c0.393,1.799-1.177,2.392-2.557,2.441c-5.815,0.208-11.636,0.279-17.454,0.384
				C360.664,488.039,360.045,487.953,358.792,487.87z"/>
			<path d="M326.014,490.613c-0.188,1.989,0.227,4.273-2.126,4.404c-2.222,0.123-2.105-2.009-2.08-3.587
				c0.027-1.695-0.139-3.938,2.131-4.087C326.274,487.189,325.763,489.447,326.014,490.613z"/>
			<path d="M325.549,516.632c-0.349,1.22-0.402,2.818-2.131,3.032c-1.32,0.163-1.655-0.921-1.592-1.987
				c0.085-1.428,0.539-2.815,2.15-3.075C325.325,514.384,325.548,515.474,325.549,516.632z"/>
			<path d="M328.133,497.484c-1.964-2.697-3.159-4.716,0.177-6.807C330.04,492.956,330.232,494.919,328.133,497.484z"/>
			<path d="M496.057,29.179c8.948-7.991,18.603-6.167,28.111-3.573c8.574,2.339,14.487,8.86,20.698,14.707
				c2.784,2.621,5.196,5.648,7.668,8.583c0.746,0.886,1.799,2.11,0.706,3.293c-1.153,1.248-2.246,0.1-3.238-0.59
				c-11.334-7.882-23.433-13.738-37.392-15.46C506.79,35.423,500.908,33.989,496.057,29.179z M499.038,29.776
				c14.435,4.193,29.219,3.781,41.604,11.744C528.654,26.372,509.419,23.667,499.038,29.776z"/>
			<path d="M551.387,75.864c-2.243-0.514-3.241-2.312-4.18-3.972c-4.336-7.671-10.223-13.4-18.993-15.668
				c-0.369-0.095-0.731-0.215-0.904-0.519C537.637,53.773,549.445,64.477,551.387,75.864z"/>
			<path d="M679.411,377.86c11.537,16.784,18.523,35.571,29.59,52.21c10.976,16.503,20.634,34.054,30.593,51.756
				c-2.673,2.726-7.209,2.002-10.193,4.74c3.392,5.836,6.245,12.007,9.088,18.188c1.161,2.524,0.76,4.098-1.657,5.546
				c-3.554,2.13-7.514,3.25-11.256,4.902c-1.561,0.689-2.816-0.055-3.75-1.53c-2.988-4.717-6.432-9.186-9.024-14.108
				c-9-17.092-20.166-32.9-29.044-50.087c-6.558-12.696-12.539-25.696-19.535-38.143c-2.724-4.847-2.869-7.917,0.907-12.404
				C670.368,392.71,674.369,385.448,679.411,377.86z M663.711,404.781c8.87,16.85,17.289,33.318,26.397,49.428
				c6.297,11.139,12.863,22.079,19.855,32.781c0.761,1.165,1.536,1.855,3.021,1.495c7.58-1.842,14.695-4.945,21.891-7.591
				c-17.508-33.223-38.251-64.165-54.759-97.855C674.623,391.079,671.258,399.583,663.711,404.781z M724.053,512.352
				c3.495-1.473,6.791-2.827,10.055-4.254c1.603-0.701,2.119-1.707,1.227-3.523c-2.813-5.73-5.448-11.548-8.117-17.255
				c-4.386,1.247-8.435,2.358-12.457,3.557c-2.459,0.733-3.085,2.233-1.637,4.476C716.734,500.944,720.325,506.549,724.053,512.352z
				"/>
			<path d="M768.331,525.536c0.482,2.317-0.987,3.412-2.68,4.384c-2.508,1.439-5.209,2.713-8.059,2.567
				c-2.505-0.129-4.78-1.012-6.339-3.726c-2.732-4.754-5.048-9.672-7.346-14.627c-1.258-2.714-0.63-4.169,2.222-4.963
				c3.625-1.009,7.742-0.389,10.797-3.395c0.686-0.675,1.693,0.053,2.195,0.816c3.629,5.519,6.566,11.403,9.086,17.499
				C768.384,524.517,768.296,525.052,768.331,525.536z M766.968,526.473c-3.54-4.572-5.406-9.741-8.193-14.397
				c-0.662-1.105-1.153-2.588-3.046-1.977c-3.147,1.016-6.319,1.953-9.748,3.005c2.328,5.248,4.517,10.321,6.84,15.331
				c0.67,1.445,1.983,1.961,3.688,1.771C760.156,529.8,763.459,528.537,766.968,526.473z"/>
			<path d="M726.093,351.85c0,2.608,0.09,5.221-0.042,7.822c-0.057,1.127-0.678,2.27-2.021,2.302
				c-1.376,0.033-1.907-1.115-2.046-2.252c-0.181-1.473-0.162-2.975-0.169-4.464c-0.067-14.915-0.882-29.782-2.903-44.567
				c-0.168-1.227-0.211-2.384,1.161-2.704c1.461-0.341,2.005,0.947,2.192,2.014c0.897,5.134,1.956,10.263,2.423,15.442
				c0.792,8.779,1.183,17.595,1.743,26.395C726.318,351.841,726.206,351.846,726.093,351.85z"/>
			<path d="M713.667,309.938c1.829,1.033,1.768,3.184,2.174,4.977c1.431,6.329,1.609,12.803,1.989,19.248
				c0.475,8.058,0.948,16.116,1.347,24.178c0.066,1.339-0.02,3.034-1.94,2.986c-1.634-0.041-1.715-1.595-1.786-2.817
				c-0.907-15.749-1.784-31.499-2.659-47.25C712.766,310.786,712.71,310.252,713.667,309.938z"/>
			<path d="M705.512,321.107c3.629,4.631,6.545,22.084,4.883,28.451c-1.547,0.485-1.847-0.578-2.198-1.71
				C706.724,343.096,704.468,322.504,705.512,321.107z"/>
			<path d="M429.076,510.5c-1.532,5.24-3.677,10.628-6.69,15.628c-0.704,1.168-1.99,2.078-3.48,1.275
				c-1.67-0.9-1.522-2.427-0.773-3.865c2.458-4.721,4.579-9.59,6.541-14.533c0.5-1.26,1.354-2.177,2.822-1.8
				C428.949,507.578,429.284,508.752,429.076,510.5z"/>
			<path d="M427.826,523.49c1.116,3.985-1.757,10.088-4.528,10.895c-1.551,0.451-2.947-0.514-2.143-1.754
				C423.079,529.666,424.673,526.347,427.826,523.49z"/>
			<path d="M512.603,470.965c2.122,3.47,1.572,7.027,1.212,10.555c-0.079,0.773-0.592,1.384-1.486,1.35
				c-0.706-0.027-1.224-0.564-1.283-1.157C510.679,478.011,510.982,474.389,512.603,470.965z"/>
			<path d="M298.543,391.314c1.962,0.294,4.292,0.576,6.592,1.014c1.268,0.242,2.477,0.927,2.265,2.446
				c-0.209,1.496-1.409,1.899-2.807,1.685c-2.317-0.355-4.64-0.68-6.945-1.106c-1.363-0.252-2.859-0.67-2.659-2.466
				C295.208,390.926,296.855,391.342,298.543,391.314z"/>
			<path d="M337.194,398.415c1.728,0.328,3.798,0.636,5.821,1.136c1.303,0.322,2.208,1.249,1.941,2.709
				c-0.271,1.484-1.453,1.939-2.797,1.78c-2.194-0.259-4.43-0.424-6.449-1.441c-1.006-0.507-2.054-1.216-1.771-2.509
				C334.26,398.627,335.552,398.408,337.194,398.415z"/>
			<path d="M287.915,393.067c-1.607-0.318-3.581-0.596-5.485-1.127c-1.121-0.313-1.943-1.192-1.665-2.535
				c0.278-1.34,1.31-1.802,2.525-1.637c1.961,0.266,3.931,0.575,5.842,1.076c1.355,0.355,2.672,1.139,2.226,2.877
				C290.95,393.31,289.495,393.044,287.915,393.067z"/>
			<path d="M373.867,409.751c-1.574-0.431-3.499-0.868-5.357-1.502c-1.098-0.375-1.977-1.2-1.514-2.543
				c0.425-1.233,1.498-1.637,2.693-1.392c1.807,0.372,3.616,0.792,5.365,1.369c1.183,0.39,2.369,1.094,1.903,2.673
				C376.568,409.674,375.351,409.691,373.867,409.751z"/>
			<path d="M354.667,401.729c1.342,0.156,2.701,0.227,4.02,0.493c1.307,0.264,2.965,0.541,2.549,2.418
				c-0.365,1.644-1.897,1.718-3.306,1.579c-1.713-0.169-3.432-0.328-5.127-0.618c-1.333-0.228-2.93-0.541-2.789-2.318
				c0.157-1.979,1.869-1.505,3.167-1.524c0.491-0.007,0.983,0.045,1.475,0.07C354.66,401.796,354.664,401.762,354.667,401.729z"/>
			<path d="M386.52,408.318c2.083,0.309,4.801-0.853,4.986,2.165c0.132,2.158-2.013,2.236-3.641,2.068
				c-2.181-0.225-5.248-0.283-5.318-2.896C382.482,407.268,385.27,408.655,386.52,408.318z"/>
			<path d="M763.1,406.214c0.79-3.09,2.784-2.529,4.805-1.436c4.164,2.253,7.904,5.144,11.62,8.045
				c1.187,0.927,3.286,1.996,2.043,3.76c-1.389,1.972-2.741-0.489-5.2-0.991c1.542,1.41,2.573,2.163,3.355,3.121
				c0.86,1.053,3.531,1.77,0.641,3.788c-1.3,0.908,2.067,1.871,0.415,3.66c-1.203,0.618-2.279-0.585-3.255-1.32
				c-5.055-3.806-9.995-7.764-15.016-11.615c-1.987-1.524-1.535-4.514-3.841-5.945c-0.752-0.467,0.08-1.706,1.109-1.695
				C760.858,405.598,761.937,405.978,763.1,406.214z"/>
			<path d="M774.635,434.224c-0.27,1.423-1.303,1.594-2.266,1.303c-2.625-0.795-4.977-2.129-6.786-4.243
				c-0.696-0.813-0.832-1.797-0.064-2.688c0.667-0.774,1.639-0.841,2.349-0.32c2.177,1.599,4.262,3.327,6.351,5.042
				C774.466,433.521,774.519,433.957,774.635,434.224z"/>
			<path d="M714.766,385.549c1.157-0.465,1.527,0.436,2.12,0.732c0.176-0.275,0.435-0.504,0.393-0.638
				c-1.2-3.826,2.125-3.968,4.144-4.616c2.335-0.748,2.682,1.657,3.303,3.167c1.828,4.448,3.449,8.989,6.332,13.349
				c0.851-3.396-2.392-6.319-0.342-9.436c3.788,2.608,5.361,11.203,2.566,13.816c0.601,1.181,1.225,2.387,1.83,3.602
				c0.39,0.783,0.855,1.613,0.005,2.367c-0.945,0.838-1.924,0.402-2.697-0.236c-2.047-1.686-3.129-4.113-5.019-6.096
				c0.516,1.178,1.029,2.357,1.549,3.533c0.575,1.302,1.805,2.44,0.929,4.383c-3.962-0.729-4.78-4.589-7.334-6.848
				c1.17,3.156,2.341,6.313,3.647,9.836C720.99,410.308,714.464,394.348,714.766,385.549z"/>
			<path d="M513.639,127.54c-15.249,6.082-39.867-7.953-40.931-23.455c5.748,6.398,9.648,14.039,17.145,18.063
				C497.241,126.113,505.591,126.192,513.639,127.54z"/>
			<path d="M355.212,242.307c-0.074,1.405-0.826,2.298-2.262,2.372c-1.277,0.065-2.168-0.692-2.272-1.954
				c-0.112-1.349,0.436-2.459,1.986-2.605C354.189,239.975,354.878,240.921,355.212,242.307z"/>
			<path d="M548.287,283.582c-1.307-0.102-2.005-0.825-1.98-2.125c0.026-1.388,0.747-2.401,2.145-2.509
				c1.501-0.116,2.262,0.965,2.219,2.312C550.629,282.627,549.695,283.432,548.287,283.582z"/>
			<path d="M622.456,391.691c-0.019,1.259-0.746,2.159-2.153,2.394c-1.694,0.284-5.179-3.397-5.248-5.515
				c-0.056-1.733,0.977-2.437,2.555-2.494C619.398,386.012,622.312,389.311,622.456,391.691z"/>
			<path d="M280.762,257.24c-3.794-0.258-4.148-0.79-2.41-4.121c2.622-5.022,5.959-9.667,8.466-15.924
				c-4.45,4.045-6.74,8.852-11.341,11.535c-0.408-5.031,2.783-8.954,3.962-14.124c-8.507,6.788-14.537,15.173-22.533,22.016
				c-1.611-3.243-0.284-5.643,0.802-7.834c2.369-4.78,4.927-9.48,7.654-14.065c1.756-2.952,3.611-5.765,3.27-9.488
				c-2.483-0.171-4.553,1.503-7.788,2.292c2.004-5.747,4.469-10.421,7.537-14.863c1.526,4.133-1.177,7.142-2.697,10.726
				c5.94,0.444,7.69-4.786,11.024-7.949c0.325,10.907-7.278,18.32-10.846,27.69c1.188-1.275,2.435-2.501,3.553-3.835
				c3.556-4.241,7.973-7.446,12.48-10.557c0.874-0.603,1.771-1.076,2.728-0.406c1.108,0.776,1.04,1.986,0.543,3.029
				c-1.315,2.76-2.751,5.462-4.624,9.141c2.734-2.169,4.614-3.683,6.523-5.16c0.596-0.461,1.322-0.858,2.037-0.313
				c0.842,0.641,0.692,1.515,0.283,2.354c-1.182,2.428-2.376,4.851-3.917,7.994c2.234-2.192,3.828-3.858,5.537-5.396
				c1.13-1.016,2.158-2.846,4.049-1.719c1.832,1.091,0.831,2.853,0.519,4.429c0.948,0.675,2.603-0.473,3.132,1.175
				c0.516,1.605-0.55,2.546-1.516,3.527c-4.617,4.693-9.231,9.39-13.846,14.085c-1.126,1.146-2.325,2.803-4.051,1.547
				c-1.835-1.336-0.427-2.835,0.471-4.16C280.108,258.363,280.405,257.828,280.762,257.24z"/>
			<path d="M223.288,266.629c-0.555-2.528,0.813-3.538,1.981-4.584c11.344-10.156,27.561-7.073,34.571,6.332
				c2.517,4.813,4.102,9.738,4.796,15.099c0.441,3.408-0.801,6.055-2.603,8.636c-0.569,0.816-1.386,1.674-2.471,1.129
				c-1.469-0.738-0.712-1.987-0.202-2.889c1.535-2.715,2.988-5.352,2.67-8.696c-0.931-9.786-6.136-16.89-14.736-20.75
				c-6.14-2.756-12.655-1.011-18.445,2.587C227.137,264.558,225.761,266.308,223.288,266.629z"/>
			<path d="M250.011,268.516c-8.229-4.596-14.533-1.275-20.134,4.918c-1.264-4.991,1.749-8.574,7.777-10.158
				C245.001,261.344,248.526,262.669,250.011,268.516z"/>
			<path d="M248.693,240.412c-4.421,2.681-10.312,0.66-12.008-3.598c-0.295-0.739-0.448-1.485,0.275-2.008
				c0.956-0.691,2.198-0.927,3.179-0.452C243.22,235.843,246.217,237.513,248.693,240.412z"/>
			<path d="M253.232,237.876c-1.675,1.573-2.993,1.016-3.913,0.384c-2.835-1.949-5.544-4.086-8.238-6.23
				c-0.777-0.618-1.347-1.538-0.618-2.587c0.618-0.891,1.619-0.866,2.292-0.314C246.227,231.977,250.35,234.097,253.232,237.876z"/>
			<path d="M263.825,266.123c6.202,0.855,7.656,9.724,2.841,17.603C265.451,277.4,268.884,271.031,263.825,266.123z"/>
			<path d="M255.707,233.647c-3.731,0.397-8.902-4.08-9.379-8.767C250.001,227.913,253.341,229.966,255.707,233.647z"/>
			<path d="M155.968,471.725c-10.072-0.354-17.867-7.538-18.803-16.701c-0.273-2.673,0.869-5.104,1.773-7.51
				c0.533-1.418,2.092-1.914,3.458-1.385c1.848,0.716,2.864,2.428,3.184,4.288c0.255,1.478-0.82,2.245-2.307,2.198
				c-2.159-0.068-2.159,1.246-1.693,2.714c1.655,5.208,5.743,8.187,10.106,10.906c1.011,0.63,1.861,0.314,2.744-0.271
				c0.953-0.632,1.686-1.433,2.243-2.431c0.947-1.699,1.596-3.941,4.052-3.775c1.715,0.116,2.25,1.885,2.658,3.262
				c0.716,2.411,0.201,4.755-1.666,6.466C159.926,471.128,157.623,471.741,155.968,471.725z"/>
			<path d="M152.486,447.585c2.582,0.533,6.22,5.755,5.608,8.205c-0.242,0.968-0.889,1.413-1.912,1.275
				c-1.937-0.261-4.939-4.613-4.188-6.495C152.409,449.532,151.142,448.648,152.486,447.585z"/>
			<path d="M163.254,454.366c-3.575-3.908-6.614-7.231-9.494-10.38C157.248,443.393,163.331,449.076,163.254,454.366z"/>
			<path d="M144.936,287.081c-9.821-9.686-14.096-23.28-24.928-31.73c0.177-0.337,0.353-0.673,0.53-1.01
				c4.202-0.561,8.403-1.136,12.608-1.673c1.105-0.141,2.254-0.034,3.333-0.271c3.709-0.816,4.441,0.822,4.862,4.327
				c0.991,8.247,2.733,16.403,4.116,24.605C145.735,282.981,146.44,284.693,144.936,287.081z M124.563,256.678
				c7.054,5.534,11.238,12.303,16.158,18.614c-0.905-6.476-1.81-12.951-2.775-19.85C133.843,255.821,129.743,256.2,124.563,256.678z
				"/>
			<path d="M348.827,524.979c2.465,0.388,4.76,1.2,4.836,4.161c0.054,2.117-1.272,3.521-3.53,3.478
				c-2.837-0.054-4.321-1.836-4.585-4.456C345.333,526.021,346.746,525.068,348.827,524.979z"/>
		</g>
	</g>
</g>
</svg>
